<?xml version="1.0" encoding="UTF-8" ?>
<!DOCTYPE svg PUBLIC "-//W3C//DTD SVG 1.1//EN" "http://www.w3.org/Graphics/SVG/1.1/DTD/svg11.dtd">
<svg width="1254pt" height="1254pt" viewBox="0 0 1254 1254" version="1.1" xmlns="http://www.w3.org/2000/svg">
<g id="#fbfbfbff">
</g>
<g id="#bd7a65ff">
<path fill="#bd7a65" opacity="1.00" d=" M 574.10 287.06 C 587.87 279.56 603.30 275.03 618.99 274.44 C 645.76 271.57 673.10 280.42 694.38 296.63 C 700.94 301.30 706.41 307.28 711.66 313.34 C 717.42 319.81 722.16 327.14 726.08 334.86 C 731.52 344.55 735.30 355.13 737.41 366.04 C 739.26 375.57 740.90 385.23 740.72 394.98 C 740.87 403.99 740.54 413.00 741.20 422.00 C 741.06 436.34 741.58 450.68 741.36 465.03 C 746.25 465.46 751.14 464.43 756.03 465.00 C 764.35 465.72 772.67 464.36 780.98 465.15 C 790.91 465.84 801.34 463.38 810.82 467.40 C 820.86 471.20 828.96 479.55 832.64 489.61 C 834.73 495.58 835.13 501.95 835.91 508.18 C 847.85 601.42 858.45 694.83 870.45 788.06 C 874.20 819.35 878.11 850.63 881.37 881.99 C 881.42 899.36 873.72 917.08 859.67 927.63 C 850.80 934.93 839.36 938.67 828.00 939.36 C 694.35 939.37 560.70 939.39 427.04 939.36 C 411.27 938.96 395.56 931.60 385.74 919.14 C 378.12 910.23 373.94 898.65 372.97 887.05 C 372.01 879.48 374.02 871.99 374.69 864.49 C 377.25 845.38 379.42 826.23 381.62 807.08 C 386.34 769.38 390.86 731.66 395.56 693.96 C 400.58 654.30 404.89 614.55 410.29 574.94 C 413.29 549.62 416.70 524.35 419.70 499.03 C 420.31 490.97 424.11 483.46 429.19 477.30 C 436.52 468.91 447.97 464.41 459.04 465.13 C 466.35 465.43 473.65 464.95 480.95 464.88 C 491.46 465.81 501.97 464.37 512.49 464.92 C 512.46 445.60 512.28 426.28 512.22 406.97 C 510.92 380.84 515.61 353.80 529.14 331.11 C 539.78 312.76 555.11 296.80 574.10 287.06 M 586.80 300.80 C 578.91 304.96 570.97 309.29 564.48 315.49 C 559.13 320.84 553.50 326.02 549.39 332.44 C 537.19 350.15 530.50 371.48 530.27 392.97 C 530.11 416.94 530.43 440.92 530.43 464.90 C 531.62 465.03 532.82 465.13 534.03 465.20 C 552.00 464.18 569.99 465.84 587.97 464.99 C 606.31 465.35 624.67 465.12 643.02 465.16 C 655.70 464.35 668.37 465.57 681.07 465.16 C 695.16 464.24 709.28 465.99 723.38 464.81 C 723.72 452.55 723.29 440.28 723.30 428.01 C 723.27 417.97 723.46 407.93 722.75 397.91 C 723.36 375.50 717.69 352.62 704.96 333.99 C 698.28 323.26 688.84 314.57 678.63 307.26 C 651.93 289.24 615.77 286.88 586.80 300.80 M 450.42 483.57 C 443.68 485.83 438.51 491.90 437.40 498.93 C 433.81 527.33 430.67 555.80 426.80 584.17 C 417.62 663.17 406.85 741.98 398.03 821.03 C 395.50 841.35 392.80 861.65 390.77 882.03 C 390.49 893.80 395.44 905.87 404.74 913.30 C 411.34 918.40 419.61 921.54 428.01 921.45 C 559.99 921.46 691.98 921.44 823.97 921.44 C 834.40 921.88 845.19 918.10 852.55 910.58 C 857.55 905.75 860.59 899.24 862.40 892.61 C 864.67 884.23 862.65 875.58 861.83 867.15 C 859.00 839.89 855.00 812.75 852.20 785.48 C 845.58 731.00 839.04 676.50 832.08 622.06 C 827.49 581.31 822.23 540.64 817.15 499.95 C 816.38 490.51 807.50 482.30 797.98 482.54 C 686.65 482.59 575.32 482.50 463.99 482.57 C 459.46 482.62 454.80 482.18 450.42 483.57 Z" />
</g>
</svg>
