<?xml version="1.0" encoding="UTF-8" ?>
<!DOCTYPE svg PUBLIC "-//W3C//DTD SVG 1.1//EN" "http://www.w3.org/Graphics/SVG/1.1/DTD/svg11.dtd">
<svg width="1254pt" height="1254pt" viewBox="0 0 1254 1254" version="1.1" xmlns="http://www.w3.org/2000/svg">
<g id="#fbfbfbff">
</g>
<g id="#c28570ff">
<path fill="#c28570" opacity="1.00" d=" M 560.92 267.89 C 575.14 254.61 593.29 244.56 613.01 243.36 C 629.28 242.06 645.85 246.57 659.34 255.73 C 666.69 259.70 672.70 265.55 678.77 271.18 C 687.30 278.66 694.29 287.64 702.40 295.54 C 716.85 311.43 731.76 326.91 746.84 342.20 C 752.39 347.31 757.10 353.25 762.85 358.15 C 824.18 418.98 889.81 475.22 953.74 533.26 C 962.94 541.38 971.80 549.86 980.80 558.20 C 986.87 564.46 993.55 570.20 998.58 577.41 C 1004.71 584.83 1008.98 595.54 1004.93 604.93 C 1002.03 612.45 994.37 616.95 986.86 618.78 C 977.70 620.51 968.29 620.60 959.03 619.78 C 951.38 619.19 943.67 619.60 936.05 618.62 C 930.37 618.51 924.57 617.83 919.00 619.14 C 917.01 619.57 916.13 621.64 915.68 623.41 C 914.57 628.86 914.53 634.46 914.44 640.00 C 914.35 720.66 914.46 801.32 914.34 881.98 C 913.38 894.51 913.18 907.27 909.49 919.40 C 905.09 938.05 893.17 955.24 875.84 963.98 C 866.47 968.52 856.32 971.47 845.96 972.52 C 821.11 975.83 795.98 974.56 770.99 974.74 C 756.30 974.59 741.33 974.71 727.04 970.87 C 717.46 968.42 710.23 960.30 707.59 950.96 C 705.25 942.19 704.18 933.08 704.32 924.01 C 704.23 872.66 704.38 821.32 704.27 769.97 C 703.86 760.58 702.68 751.24 700.45 742.10 C 695.97 725.90 686.71 710.89 673.51 700.39 C 658.44 687.73 638.53 681.63 619.00 681.79 C 610.93 682.54 602.67 682.28 594.86 684.78 C 585.06 687.89 575.38 691.99 567.14 698.23 C 560.06 704.12 553.29 710.58 548.34 718.43 C 541.04 730.03 536.44 743.33 535.02 756.97 C 533.44 767.91 534.77 778.99 533.92 789.98 C 534.98 803.97 532.98 817.98 534.21 831.96 C 534.31 848.97 534.06 865.97 534.05 882.96 C 534.74 889.64 533.30 896.33 534.07 903.01 C 533.74 908.03 534.54 913.04 534.08 918.05 C 533.33 925.71 534.22 933.49 532.63 941.08 C 531.28 949.97 528.82 959.63 521.44 965.49 C 512.86 972.25 501.46 972.91 491.01 973.70 C 471.71 975.30 452.32 974.61 432.98 974.79 C 420.51 974.96 408.04 974.37 395.66 972.94 C 380.11 971.42 364.41 966.70 352.00 956.90 C 347.57 953.05 343.15 949.04 339.82 944.17 C 335.90 937.73 331.99 931.14 330.19 923.75 C 326.22 910.54 324.34 896.77 324.52 882.99 C 324.38 803.64 324.60 724.30 324.72 644.95 C 324.50 636.58 325.57 627.72 322.05 619.86 C 316.27 617.68 310.01 618.39 303.98 618.59 C 293.34 619.40 282.66 619.53 272.01 620.22 C 261.08 620.11 248.71 620.61 239.79 613.17 C 233.20 608.28 230.44 599.27 232.51 591.43 C 235.00 580.86 242.97 572.82 250.37 565.37 C 265.68 549.95 281.97 535.57 298.06 520.98 C 338.41 484.33 379.17 448.14 419.33 411.27 C 457.67 376.32 494.13 339.36 529.24 301.18 C 539.56 289.87 549.79 278.42 560.92 267.89 M 594.94 269.55 C 582.31 275.16 572.58 285.27 563.10 295.01 C 531.96 328.84 500.93 362.83 467.58 394.52 C 456.29 405.92 444.31 416.59 432.83 427.78 C 382.67 473.69 331.65 518.72 281.17 564.27 C 272.92 571.94 264.78 579.77 257.21 588.13 C 255.04 590.44 253.64 593.29 252.29 596.13 C 254.54 599.08 258.51 599.41 261.93 599.60 C 274.95 600.05 287.94 598.70 300.95 598.49 C 309.14 598.38 317.50 597.58 325.55 599.55 C 332.78 601.42 339.77 606.48 341.84 613.94 C 343.60 619.79 344.64 625.90 344.62 632.02 C 344.66 714.34 344.55 796.65 344.60 878.97 C 344.45 889.36 345.01 899.83 347.26 910.00 C 349.92 923.20 356.58 936.41 368.24 943.80 C 380.22 951.75 395.04 953.44 409.08 953.72 C 422.68 955.15 436.36 954.39 450.00 954.59 C 466.72 954.78 483.46 954.25 500.09 952.57 C 504.43 952.15 509.41 950.38 511.05 945.94 C 515.11 935.44 512.97 923.98 514.01 913.05 C 514.81 895.01 513.07 876.98 514.21 858.95 C 513.96 847.29 514.68 835.62 513.78 823.99 C 513.49 818.32 514.44 812.68 514.23 807.01 C 514.07 793.33 514.16 779.65 514.14 765.98 C 514.63 749.04 518.13 731.99 525.94 716.86 C 537.89 692.73 560.03 673.67 585.92 666.04 C 597.16 662.10 609.17 661.21 621.00 661.22 C 641.77 661.39 662.32 667.92 679.59 679.42 C 691.05 687.81 701.57 697.84 708.71 710.25 C 714.50 718.99 717.68 729.06 720.54 739.06 C 725.64 760.33 723.95 782.32 724.29 804.00 C 724.24 840.00 724.27 876.00 724.24 912.01 C 724.43 922.36 723.70 932.90 726.40 943.02 C 727.16 945.96 728.40 949.21 731.31 950.65 C 735.53 952.81 740.44 952.62 745.02 953.46 C 754.35 953.72 763.65 954.73 773.01 954.56 C 798.37 954.45 823.93 955.73 849.06 951.57 C 856.91 950.35 864.47 947.46 871.19 943.23 C 880.89 936.25 887.48 925.51 890.15 913.94 C 893.09 903.20 893.41 892.03 894.29 881.00 C 894.38 799.98 894.25 718.96 894.42 637.95 C 894.39 628.36 894.93 618.28 899.67 609.71 C 904.63 601.48 914.80 598.24 923.97 598.24 C 934.99 598.17 946.01 598.66 957.01 599.25 C 965.02 599.38 973.11 600.51 981.06 599.01 C 982.94 598.75 984.51 597.64 985.86 596.37 C 983.68 590.08 978.57 585.62 974.13 580.94 C 964.15 570.50 953.17 561.12 942.47 551.45 C 935.67 544.58 927.76 538.95 921.02 532.03 C 896.24 510.15 871.80 487.90 847.15 465.88 C 824.55 445.13 801.64 424.75 779.41 403.61 C 754.81 380.22 730.57 356.40 707.36 331.62 C 692.34 316.29 678.42 299.92 663.04 284.94 C 654.67 276.78 644.71 270.09 633.57 266.43 C 620.88 262.71 606.80 263.52 594.94 269.55 Z" />
</g>
</svg>
