<?xml version="1.0" encoding="UTF-8" ?>
<!DOCTYPE svg PUBLIC "-//W3C//DTD SVG 1.1//EN" "http://www.w3.org/Graphics/SVG/1.1/DTD/svg11.dtd">
<svg width="1254pt" height="1254pt" viewBox="0 0 1254 1254" version="1.1" xmlns="http://www.w3.org/2000/svg">
<g id="#f8f8f8ff">
</g>
<g id="#c78a75ff">
<path fill="#c78a75" opacity="1.00" d=" M 461.50 247.78 C 470.99 247.16 480.54 246.58 490.05 247.04 C 510.73 247.40 531.40 246.72 552.07 246.81 C 581.02 247.58 609.98 246.47 638.94 246.90 C 651.94 247.37 664.96 247.02 677.96 247.12 C 691.32 246.27 704.68 247.44 718.04 247.14 C 730.05 246.96 742.06 247.41 754.06 246.84 C 766.35 247.05 778.69 246.51 790.93 248.08 C 830.65 249.80 869.88 263.45 901.79 287.22 C 938.55 313.84 965.15 353.95 975.88 398.01 C 979.61 413.38 981.07 429.22 981.28 445.01 C 981.20 533.68 981.27 622.36 981.26 711.04 C 980.85 723.36 981.32 735.68 981.24 748.00 C 981.19 771.37 982.24 795.01 977.09 817.98 C 972.93 837.84 965.46 856.94 955.51 874.60 C 936.82 906.85 909.08 933.91 875.91 951.04 C 856.86 960.64 836.28 967.62 815.12 970.56 C 792.95 974.40 770.38 972.97 747.99 973.37 C 655.69 973.23 563.40 973.46 471.10 973.26 C 454.64 973.32 438.20 971.88 422.04 968.70 C 403.84 964.43 385.92 958.49 369.46 949.52 C 340.70 934.03 316.05 911.19 298.08 883.93 C 280.63 857.09 269.67 825.98 266.62 794.10 C 266.44 786.70 265.45 779.35 265.65 771.95 C 265.47 690.94 265.60 609.93 265.60 528.92 C 265.38 501.95 265.72 474.99 265.70 448.02 C 266.34 426.94 268.94 405.77 275.55 385.66 C 284.70 356.37 301.23 329.53 322.70 307.67 C 350.51 279.34 387.08 259.85 426.01 252.18 C 437.68 249.63 449.60 248.60 461.50 247.78 M 600.19 266.36 C 574.77 266.63 549.36 266.28 523.94 266.46 C 502.30 266.62 480.60 265.91 459.04 268.13 C 443.05 268.79 427.23 271.62 411.82 275.82 C 384.76 284.01 359.55 298.56 339.22 318.24 C 313.64 342.78 296.02 375.26 289.03 409.98 C 287.15 421.89 285.34 433.88 285.31 445.97 C 284.45 457.63 284.88 469.33 284.79 481.01 C 284.78 576.69 284.80 672.37 284.78 768.05 C 284.52 776.05 285.48 784.01 285.79 792.00 C 290.06 835.97 310.48 878.77 343.90 908.02 C 367.63 929.58 397.41 944.44 428.94 950.31 C 437.60 951.65 446.32 952.56 455.05 953.39 C 470.03 953.87 485.02 953.53 500.01 953.60 C 590.99 953.64 681.97 953.61 772.95 953.63 C 793.85 954.19 814.86 952.23 835.06 946.71 C 860.45 938.96 884.58 926.26 904.10 908.12 C 933.06 882.60 952.61 846.98 959.51 809.08 C 963.93 782.94 961.94 756.37 962.38 730.00 C 962.41 644.35 962.38 558.71 962.39 473.06 C 962.47 456.36 962.64 439.61 960.73 423.01 C 958.14 403.29 952.79 383.79 943.64 366.07 C 932.32 342.09 914.50 321.59 893.86 305.15 C 865.07 282.82 829.30 270.06 792.97 268.21 C 783.03 267.06 773.04 266.40 763.03 266.51 C 708.75 266.40 654.47 266.42 600.19 266.36 Z" />
<path fill="#c78a75" opacity="1.00" d=" M 826.37 355.64 C 834.84 353.73 843.72 354.68 852.01 356.98 C 866.67 361.76 878.48 373.92 883.36 388.49 C 887.17 401.81 886.01 416.85 878.84 428.87 C 873.19 437.84 864.92 445.38 854.88 449.06 C 844.15 453.63 831.84 453.52 820.80 450.16 C 814.43 447.70 808.39 444.24 803.14 439.86 C 792.64 429.95 786.65 415.39 787.49 400.95 C 788.39 391.16 791.77 381.55 797.81 373.75 C 804.78 364.57 815.14 358.14 826.37 355.64 M 830.09 374.15 C 822.68 375.87 816.10 380.43 811.52 386.44 C 806.29 394.47 804.53 405.01 808.15 414.04 C 810.56 421.77 816.97 427.51 824.02 431.06 C 837.33 437.53 855.14 432.38 862.44 419.37 C 867.50 411.25 868.37 400.69 864.49 391.92 C 859.17 378.83 843.83 371.00 830.09 374.15 Z" />
<path fill="#c78a75" opacity="1.00" d=" M 603.56 439.69 C 627.18 437.07 651.33 439.01 674.11 445.84 C 684.47 449.58 695.14 452.75 704.76 458.26 C 717.63 465.21 730.05 473.26 740.72 483.32 C 745.63 487.36 750.27 491.76 754.29 496.70 C 778.40 523.29 794.03 557.36 798.83 592.90 C 803.26 628.63 796.45 665.68 779.49 697.45 C 754.18 745.91 705.19 781.66 650.91 789.46 C 631.07 792.60 610.75 792.00 590.99 788.62 C 572.06 784.61 553.44 778.34 536.90 768.12 C 530.17 764.35 523.68 760.16 517.76 755.19 C 495.34 738.47 477.54 715.90 465.29 690.82 C 460.34 681.04 456.91 670.59 454.03 660.04 C 452.09 652.51 450.04 644.93 449.52 637.14 C 447.40 616.37 447.73 595.14 452.76 574.80 C 460.36 541.92 477.79 511.47 501.97 487.96 C 511.07 479.61 520.58 471.67 531.07 465.11 C 553.10 451.67 577.92 442.81 603.56 439.69 M 614.21 458.37 C 574.21 460.58 535.85 479.37 508.61 508.55 C 485.18 534.43 470.17 568.03 467.50 602.91 C 466.24 624.79 468.74 647.11 476.44 667.71 C 487.64 699.91 509.99 727.83 538.25 746.75 C 557.80 759.29 579.95 768.15 603.08 770.97 C 625.74 774.24 649.17 772.21 670.98 765.26 C 686.58 759.98 701.80 752.98 714.97 742.99 C 749.38 718.80 772.92 680.05 779.24 638.53 C 782.17 616.74 781.71 594.13 775.08 573.03 C 772.88 564.41 769.35 556.22 765.76 548.11 C 762.23 540.03 757.28 532.70 752.70 525.21 C 740.29 507.57 724.47 492.24 705.95 481.11 C 696.22 474.71 685.35 470.40 674.56 466.18 C 655.20 459.65 634.58 457.28 614.21 458.37 Z" />
</g>
</svg>
