<?xml version="1.0" encoding="UTF-8" ?>
<!DOCTYPE svg PUBLIC "-//W3C//DTD SVG 1.1//EN" "http://www.w3.org/Graphics/SVG/1.1/DTD/svg11.dtd">
<svg width="1254pt" height="1254pt" viewBox="0 0 1254 1254" version="1.1" xmlns="http://www.w3.org/2000/svg">
<g id="#f9f8f8ff">
</g>
<g id="#c18672ff">
<path fill="#c18672" opacity="1.00" d=" M 622.55 195.72 C 684.56 193.32 746.83 206.32 803.34 231.76 C 824.83 241.79 845.40 253.73 864.94 267.16 C 886.41 282.28 906.22 299.69 924.31 318.72 C 989.72 387.53 1028.53 481.00 1030.92 575.92 C 1031.29 588.90 1030.88 601.90 1030.46 614.88 C 1028.83 636.80 1026.08 658.71 1020.68 680.05 C 1015.57 701.64 1008.90 722.88 1000.19 743.29 C 989.71 769.56 975.28 794.04 959.72 817.58 C 955.05 823.96 950.40 830.34 945.76 836.73 C 897.60 897.67 831.76 945.53 757.09 968.03 C 694.40 987.97 626.51 990.52 562.26 976.75 C 549.59 974.33 537.29 970.35 524.91 966.76 C 510.16 961.67 495.39 956.50 481.26 949.84 C 470.18 945.69 460.25 937.47 447.94 937.38 C 437.98 936.74 428.80 941.19 419.59 944.27 C 366.93 963.98 314.19 983.50 261.61 1003.44 C 253.18 1006.13 245.09 1010.77 235.98 1010.42 C 228.85 1010.63 221.98 1005.77 219.82 998.98 C 217.53 992.41 219.41 985.31 221.83 979.07 C 235.44 945.06 250.73 911.76 264.96 878.01 C 270.48 865.76 275.74 853.40 281.10 841.08 C 286.27 830.95 290.09 820.20 294.99 809.95 C 298.45 802.59 297.41 793.67 293.22 786.83 C 282.98 769.94 274.29 752.14 267.11 733.74 C 255.70 703.54 247.02 672.13 243.67 639.95 C 240.40 616.45 240.92 592.64 241.71 568.99 C 244.20 526.54 253.26 484.42 268.87 444.85 C 297.13 372.88 347.37 309.88 410.84 265.80 C 442.77 243.75 477.99 226.53 515.03 214.97 C 549.75 203.60 586.08 197.37 622.55 195.72 M 471.10 251.42 C 462.68 255.93 453.98 259.95 445.74 264.82 C 439.69 268.81 433.42 272.47 427.30 276.35 C 373.31 311.99 329.19 362.05 299.53 419.46 C 275.12 467.55 261.55 521.02 259.33 574.87 C 258.37 585.55 258.65 596.32 259.32 607.00 C 259.21 621.22 261.25 635.32 262.88 649.41 C 265.20 667.35 269.99 684.84 274.81 702.24 C 283.09 728.56 294.14 754.03 308.05 777.87 C 314.10 788.89 315.69 802.43 311.50 814.38 C 309.46 819.94 307.14 825.41 304.71 830.82 C 292.13 859.57 279.87 888.47 267.19 917.18 C 256.18 942.45 245.01 967.66 234.91 993.30 C 236.94 993.50 238.97 993.28 240.87 992.51 C 273.31 980.62 305.38 967.76 337.86 956.02 C 365.12 946.03 392.29 935.84 419.50 925.74 C 430.83 921.69 443.00 918.30 455.10 920.44 C 468.81 922.81 480.40 931.04 493.21 935.92 C 506.23 941.69 519.64 946.57 533.23 950.81 C 543.95 953.70 554.45 957.45 565.40 959.40 C 606.20 968.48 648.55 969.94 690.01 965.11 C 731.45 959.73 772.02 947.32 809.17 928.14 C 842.15 911.09 872.38 888.81 898.71 862.66 C 911.65 849.53 924.30 836.06 935.09 821.08 C 941.72 813.16 946.93 804.23 952.82 795.78 C 974.52 761.44 991.02 723.81 1001.34 684.52 C 1007.24 663.79 1009.98 642.36 1012.25 620.99 C 1017.75 552.48 1005.00 482.30 974.12 420.78 C 969.03 411.54 964.44 402.02 958.80 393.11 C 925.73 339.33 878.81 294.26 824.08 262.87 C 816.74 258.83 809.25 255.07 801.84 251.16 C 779.21 240.46 755.56 231.98 731.35 225.66 C 697.37 216.66 662.11 213.15 627.01 213.84 C 573.19 215.32 519.67 228.16 471.10 251.42 Z" />
<path fill="#c18672" opacity="1.00" d=" M 486.43 393.67 C 493.09 392.41 499.90 393.03 506.61 393.56 C 518.97 395.78 530.63 402.77 537.79 413.19 C 542.74 419.96 546.58 427.46 549.77 435.20 C 557.72 451.82 565.59 468.49 572.66 485.50 C 576.58 494.75 576.47 505.36 573.75 514.91 C 571.12 524.39 563.72 531.25 557.58 538.52 C 553.19 543.40 548.67 548.49 546.78 554.93 C 544.30 562.41 546.23 570.52 549.39 577.49 C 556.79 593.77 568.70 607.36 579.89 621.11 C 595.67 638.70 612.86 655.22 632.30 668.77 C 640.26 674.53 648.88 679.35 657.87 683.30 C 664.17 685.84 671.35 687.61 677.93 685.01 C 683.84 683.61 687.55 678.57 691.57 674.47 C 699.56 665.84 706.30 655.70 716.45 649.38 C 727.72 642.61 742.17 642.81 754.01 648.02 C 772.14 656.23 789.02 666.84 806.40 676.48 C 816.64 682.43 827.51 688.98 833.20 699.82 C 840.40 712.95 839.83 728.89 835.63 742.88 C 828.31 763.25 814.48 781.49 796.04 793.01 C 785.17 800.20 772.80 805.02 760.05 807.62 C 751.56 809.79 742.80 810.71 734.05 810.68 C 705.18 811.58 676.99 802.91 650.86 791.29 C 623.62 778.88 598.11 762.84 574.49 744.49 C 545.84 722.81 519.84 697.79 495.95 671.00 C 477.94 649.97 461.41 627.65 446.93 604.05 C 443.00 596.60 438.50 589.48 434.90 581.86 C 426.60 563.70 419.19 544.92 415.92 525.13 C 408.26 489.77 416.60 450.86 439.76 422.81 C 444.16 417.88 448.63 412.95 453.72 408.72 C 463.23 401.25 474.34 395.43 486.43 393.67 M 487.25 411.35 C 474.54 413.85 463.75 421.79 455.24 431.25 C 443.22 445.25 434.81 462.52 432.37 480.89 C 429.11 502.34 432.30 524.32 439.23 544.74 C 442.63 556.27 447.73 567.20 453.04 577.95 C 458.02 588.58 464.73 598.25 470.63 608.36 C 478.28 619.58 486.14 630.67 494.79 641.14 C 499.88 648.32 506.13 654.55 511.70 661.35 C 524.83 676.14 538.80 690.18 553.08 703.84 C 565.74 714.19 577.77 725.31 591.13 734.75 C 610.99 749.56 632.12 762.74 654.54 773.34 C 668.34 779.62 682.36 785.73 697.29 788.83 C 727.00 796.43 760.63 795.13 787.00 778.14 C 796.64 771.24 805.43 762.84 811.66 752.67 C 817.90 742.33 822.89 730.37 821.15 718.06 C 819.65 710.29 815.39 702.66 808.44 698.57 C 799.67 692.41 790.14 687.52 781.06 681.87 C 770.32 676.39 760.18 669.76 749.10 664.97 C 740.87 660.47 729.94 660.36 722.47 666.41 C 716.96 671.27 712.58 677.21 707.54 682.52 C 702.65 688.24 698.05 694.55 691.35 698.28 C 686.03 701.23 680.17 703.59 674.01 703.68 C 660.65 704.60 647.85 699.16 636.56 692.54 C 608.95 676.15 585.00 654.12 564.31 629.68 C 556.86 621.63 550.34 612.76 544.29 603.63 C 538.15 594.90 532.93 585.36 530.05 575.04 C 526.55 563.06 528.31 549.55 535.10 539.04 C 540.64 530.17 548.58 523.17 554.88 514.88 C 558.25 510.02 559.07 503.81 558.37 498.04 C 557.32 491.01 553.44 484.88 550.69 478.45 C 544.03 462.95 536.72 447.74 529.42 432.54 C 526.92 426.81 523.27 421.54 518.42 417.55 C 510.13 409.93 497.76 409.57 487.25 411.35 Z" />
</g>
</svg>
