<svg xmlns="http://www.w3.org/2000/svg" viewBox="0 0 260 300" fill="none">
  <g stroke="#B6684A" stroke-width="7" stroke-linecap="round" fill="none">
    <path d="M130 40 C70 40 25 90 25 150 C25 210 65 260 120 268"/>
    <path d="M130 55 C80 55 40 98 40 150 C40 198 72 240 118 250"/>
    <path d="M130 70 C92 70 55 105 55 150 C55 190 80 222 112 234"/>
    <path d="M60 100 C50 118 45 134 45 150"/>
    <path d="M130 85 C104 85 70 112 70 150 C70 180 88 205 108 218"/>
    <path d="M45 165 C48 180 55 195 65 208"/>
    <path d="M130 100 C116 100 85 120 85 150 C85 172 98 190 112 202"/>
    <path d="M35 185 C40 200 50 214 60 224"/>
    <path d="M130 115 C118 116 100 128 100 150 C100 164 108 176 118 186"/>
    <path d="M28 200 C32 214 42 228 52 238"/>
    <path d="M130 130 C122 132 115 138 115 150 C115 158 119 166 124 172"/>
    <path d="M22 214 C26 228 34 242 44 252"/>
    <path d="M18 228 C22 240 28 252 36 262"/>
    <path d="M100 245 C90 240 80 234 70 226"/>
    <path d="M90 258 C78 253 66 246 55 237"/>
    <path d="M78 267 C66 262 54 254 44 245"/>
    <path d="M155 40 C130 38 108 42 90 52"/>
    <path d="M170 48 C150 42 128 40 108 44"/>
    <path d="M185 58 C165 48 142 43 120 45"/>
    <path d="M198 70 C178 56 155 48 132 48"/>
    <path d="M210 85 C192 68 168 56 145 53"/>
    <path d="M220 100 C204 82 180 68 158 62"/>
    <path d="M228 118 C214 98 192 82 170 74"/>
    <path d="M234 136 C222 116 202 98 180 88"/>
    <path d="M238 155 C228 134 210 114 188 102"/>
    <path d="M238 174 C230 152 214 132 194 118"/>
    <path d="M235 193 C230 170 216 148 198 133"/>
    <path d="M228 211 C226 188 214 165 198 148"/>
    <path d="M218 227 C218 205 208 182 194 163"/>
    <path d="M205 241 C207 219 200 196 188 177"/>
    <path d="M188 253 C192 231 187 207 178 189"/>
    <path d="M170 261 C176 240 174 216 166 198"/>
    <path d="M150 265 C158 245 158 220 152 202"/>
    <path d="M14 148 C14 100 55 25 130 25 C205 25 246 100 246 155"/>
  </g>
</svg>
