<?xml version="1.0" encoding="UTF-8" ?>
<!DOCTYPE svg PUBLIC "-//W3C//DTD SVG 1.1//EN" "http://www.w3.org/Graphics/SVG/1.1/DTD/svg11.dtd">
<svg width="1024pt" height="1536pt" viewBox="0 0 1024 1536" version="1.1" xmlns="http://www.w3.org/2000/svg">
<g id="#51261697">
<path fill="#512616" opacity="0.59" d=" M 520.85 264.03 C 523.89 261.97 527.73 260.92 531.36 261.81 C 527.77 262.06 524.27 262.96 520.85 264.03 Z" />
</g>
<g id="#cc6f4cfb">
<path fill="#cc6f4c" opacity="1.00" d=" M 520.85 264.03 C 524.27 262.96 527.77 262.06 531.36 261.81 C 535.95 263.34 540.32 266.18 542.61 270.56 C 545.00 275.17 547.33 279.83 549.06 284.73 C 553.12 297.42 556.14 310.40 558.92 323.42 C 562.17 340.64 562.95 358.21 565.30 375.57 C 567.05 390.29 569.39 404.94 571.98 419.53 C 572.20 423.97 572.79 428.38 573.83 432.70 C 572.33 433.89 572.90 436.05 574.44 436.90 C 578.23 454.12 579.92 471.71 583.10 489.05 C 584.48 497.48 584.97 506.06 587.00 514.38 C 587.56 516.41 587.95 518.51 587.78 520.63 C 586.07 527.58 588.32 534.57 589.68 541.37 C 589.93 538.84 590.19 536.30 590.29 533.76 C 590.95 537.69 591.68 541.61 592.11 545.59 C 592.35 548.26 592.96 550.89 593.72 553.46 C 593.92 554.33 594.33 556.06 594.53 556.93 C 595.12 555.62 595.68 554.30 596.40 553.07 C 597.39 551.56 598.00 549.84 598.10 548.04 C 598.65 543.88 600.66 540.10 602.40 536.33 C 609.32 522.46 620.07 509.64 634.76 503.73 C 640.82 501.59 647.97 500.40 653.87 503.66 C 654.93 505.63 656.06 507.72 655.99 510.05 C 656.25 523.14 653.57 536.03 652.18 548.99 C 651.09 564.41 650.68 580.11 653.87 595.32 L 653.91 595.54 C 654.46 600.19 655.44 604.79 656.97 609.23 L 657.10 609.72 C 658.12 618.59 659.89 627.53 658.57 636.48 C 658.24 636.08 657.57 635.30 657.23 634.91 C 656.80 638.79 657.07 642.69 657.79 646.53 C 657.75 647.37 657.70 648.22 657.65 649.07 C 657.27 648.55 656.52 647.50 656.15 646.98 C 654.85 658.94 654.93 670.97 654.10 682.96 C 654.16 692.32 655.09 701.65 655.17 711.01 C 655.56 710.46 656.35 709.35 656.74 708.80 C 656.98 715.36 657.75 721.89 657.89 728.46 C 656.39 734.05 656.62 739.86 657.77 745.49 C 657.75 745.80 657.71 746.41 657.69 746.71 C 655.05 750.38 654.97 755.04 654.28 759.33 C 653.88 761.28 654.42 763.19 655.16 765.01 C 652.87 773.24 650.74 781.54 647.97 789.62 C 646.47 792.73 645.48 796.04 644.94 799.45 L 644.92 799.54 C 642.61 805.50 640.90 811.67 638.86 817.73 C 637.07 823.17 634.76 828.46 633.83 834.14 C 633.34 835.99 632.89 837.93 631.83 839.57 C 628.65 843.44 627.18 848.29 626.84 853.24 C 626.36 855.56 625.42 857.79 624.19 859.83 C 620.98 864.14 618.79 869.21 618.05 874.56 C 617.93 874.99 617.69 875.85 617.57 876.28 L 617.00 876.92 C 614.63 879.10 612.83 881.91 612.89 885.25 C 612.84 885.75 612.72 886.77 612.66 887.28 L 611.97 887.95 C 609.79 889.49 608.97 891.93 609.02 894.53 L 608.91 894.68 C 605.93 898.71 603.30 903.26 602.87 908.36 C 600.95 915.84 597.90 923.04 595.94 930.55 C 594.74 933.33 594.19 936.32 593.87 939.33 L 593.84 939.47 C 592.15 945.69 591.56 952.12 590.63 958.49 C 590.26 958.07 589.53 957.24 589.17 956.83 C 588.89 960.12 589.17 963.43 589.79 966.68 C 588.57 977.93 587.74 989.26 585.63 1000.39 C 582.72 1013.69 578.73 1026.72 575.02 1039.82 C 573.33 1046.38 570.83 1052.76 570.11 1059.55 C 569.22 1064.08 567.89 1068.51 566.98 1073.04 C 566.72 1074.17 566.58 1075.37 566.20 1076.50 C 562.92 1084.77 562.57 1093.81 560.66 1102.44 C 560.34 1102.05 559.69 1101.28 559.36 1100.90 C 558.25 1107.47 557.71 1114.13 556.38 1120.67 C 556.05 1123.37 554.83 1126.48 556.70 1128.92 C 555.71 1138.70 554.33 1148.45 553.74 1158.28 C 553.46 1162.53 552.99 1166.81 551.68 1170.89 L 551.39 1171.86 C 548.23 1172.28 547.81 1168.86 547.56 1166.52 C 547.73 1163.83 547.97 1161.15 548.16 1158.48 C 549.36 1151.25 549.54 1143.79 548.07 1136.58 C 548.02 1133.98 548.15 1131.39 548.40 1128.82 C 548.74 1129.35 549.42 1130.43 549.76 1130.96 C 550.09 1127.41 549.93 1123.84 549.17 1120.36 C 549.29 1115.75 549.88 1111.17 550.45 1106.61 C 550.75 1106.97 551.36 1107.68 551.67 1108.04 C 552.01 1101.05 554.53 1094.11 553.26 1087.11 C 555.24 1071.71 559.75 1056.79 563.07 1041.67 C 565.53 1031.71 568.68 1021.93 571.17 1011.98 C 579.04 986.81 578.48 960.08 583.90 934.43 C 584.86 931.53 585.58 928.57 585.98 925.55 C 588.72 911.58 595.24 898.72 600.85 885.75 C 603.07 880.97 605.44 876.27 607.62 871.47 C 609.97 867.38 612.11 863.13 613.17 858.50 C 613.78 856.42 614.64 854.42 615.64 852.51 C 617.90 848.84 619.32 844.75 620.18 840.54 C 621.53 836.25 623.15 832.05 624.73 827.84 C 623.87 831.71 622.90 835.57 622.05 839.45 C 624.41 835.29 625.72 830.68 627.24 826.19 C 628.41 822.60 630.24 818.93 629.25 815.07 C 631.57 806.82 634.35 798.57 636.95 790.36 C 638.73 786.45 639.84 782.28 640.87 778.12 C 642.71 770.75 645.06 763.52 646.86 756.15 C 649.06 745.92 649.55 735.40 649.05 724.97 C 648.90 718.46 647.93 712.00 648.11 705.49 C 649.76 697.74 648.72 689.81 649.00 681.97 C 649.16 677.45 649.09 672.90 648.09 668.48 C 647.96 655.30 650.56 642.25 650.17 629.06 C 649.56 628.73 648.33 628.08 647.72 627.75 C 646.37 626.93 644.78 626.26 644.00 624.80 C 643.19 623.33 641.96 621.95 640.18 621.87 L 639.30 621.69 L 639.09 620.74 C 639.00 619.20 637.70 618.25 636.40 617.73 L 635.37 617.19 C 635.54 616.57 635.89 615.33 636.06 614.70 C 638.03 615.94 640.01 617.18 642.05 618.32 L 642.44 618.54 L 642.74 618.83 C 644.81 621.31 647.72 622.74 650.89 623.24 C 650.53 622.01 650.18 620.79 649.84 619.58 L 649.58 618.55 C 648.19 608.65 645.54 598.96 644.70 588.99 C 643.80 582.28 643.75 575.50 643.47 568.75 C 642.83 568.59 641.55 568.27 640.91 568.11 C 640.15 567.73 639.56 567.19 639.13 566.46 C 637.20 562.96 635.54 559.32 634.00 555.65 C 633.35 553.93 632.92 552.11 632.72 550.30 C 633.37 540.54 633.31 530.45 637.06 521.25 C 638.77 517.10 640.48 512.94 641.80 508.65 C 640.80 509.10 639.81 509.57 638.84 510.05 C 636.51 511.18 634.24 512.41 631.97 513.65 C 627.94 515.58 624.38 518.42 621.79 522.08 C 620.24 523.98 618.73 525.93 617.00 527.67 C 613.79 530.62 610.46 534.01 609.95 538.57 C 609.84 538.94 609.62 539.68 609.51 540.05 L 609.17 540.67 C 603.68 550.91 601.36 562.51 599.95 573.95 C 599.15 579.96 601.12 585.82 602.55 591.57 C 603.90 596.56 604.98 601.65 607.00 606.43 C 607.58 607.82 607.86 609.30 608.07 610.80 C 608.42 614.80 609.49 618.67 610.80 622.45 L 610.83 622.54 C 611.39 626.93 612.45 631.23 613.92 635.40 L 613.96 635.59 C 614.38 638.60 615.05 641.57 615.90 644.49 L 615.94 644.65 C 616.56 648.95 617.49 653.22 618.99 657.31 L 619.06 657.55 C 620.26 666.79 622.79 675.78 624.28 684.98 C 626.54 696.07 627.91 707.32 630.05 718.43 L 630.11 718.81 C 630.42 730.88 629.51 743.10 625.20 754.49 C 624.23 757.47 622.66 760.23 620.77 762.73 C 620.18 762.28 619.02 761.37 618.44 760.92 C 618.93 758.71 619.47 756.53 620.12 754.37 L 621.43 753.03 C 623.01 748.34 623.64 743.20 622.22 738.40 C 622.41 730.77 622.66 723.05 621.12 715.54 C 617.89 691.79 612.68 668.38 607.47 645.01 C 604.47 630.43 600.22 616.18 596.28 601.85 C 594.85 596.69 592.88 591.67 591.96 586.40 C 591.68 583.70 591.12 581.04 590.18 578.51 L 590.13 578.32 C 589.45 573.68 588.54 569.08 587.02 564.64 L 586.97 564.40 C 584.53 549.24 581.69 534.13 579.66 518.90 C 576.07 495.85 573.97 472.53 569.06 449.71 L 568.97 449.23 C 568.45 440.35 566.12 431.73 564.83 422.95 C 561.03 401.34 557.95 379.58 556.17 357.73 C 557.71 351.78 556.18 345.70 555.44 339.76 C 555.22 340.19 554.79 341.03 554.57 341.46 L 553.97 342.62 L 553.89 341.37 C 553.91 336.06 553.40 330.77 552.11 325.62 L 552.06 325.25 C 551.84 320.63 551.12 316.06 549.96 311.59 C 549.15 308.39 549.47 304.90 547.70 301.99 C 547.47 300.90 547.26 299.81 547.06 298.72 C 546.55 298.55 545.55 298.19 545.05 298.02 C 544.72 301.98 544.59 305.97 544.65 309.95 C 544.14 308.12 543.62 306.29 543.19 304.45 C 543.37 295.73 543.48 286.73 540.20 278.49 C 539.01 275.06 537.00 271.88 534.04 269.71 C 533.81 269.53 533.35 269.18 533.12 269.00 C 530.38 266.46 526.24 266.46 523.56 269.10 C 523.23 269.33 522.57 269.81 522.23 270.04 C 518.74 271.94 517.59 275.88 516.90 279.51 C 515.24 285.54 515.51 291.87 515.90 298.05 C 516.94 304.84 518.20 311.78 521.56 317.87 C 522.75 320.99 525.10 323.64 528.51 324.26 C 530.28 324.80 532.14 324.49 533.90 324.01 C 532.25 324.70 530.59 325.36 528.95 326.05 C 531.54 325.97 534.49 326.49 536.66 324.71 C 538.92 322.92 540.42 320.40 542.16 318.14 C 541.40 321.34 540.01 324.34 538.22 327.09 C 538.53 327.11 539.15 327.15 539.46 327.17 L 540.04 327.22 C 538.80 327.98 537.57 328.76 536.26 329.39 C 530.91 330.14 525.55 328.89 520.95 326.11 L 520.38 325.82 L 520.13 325.15 C 518.18 319.88 515.66 314.85 513.11 309.86 L 512.75 309.15 L 512.72 308.30 C 512.61 303.74 511.98 299.22 511.47 294.69 C 511.15 296.91 510.86 299.14 510.49 301.35 C 508.35 306.30 509.15 311.76 509.00 317.00 C 508.89 323.68 509.03 330.36 509.34 337.04 C 509.69 336.48 510.41 335.36 510.76 334.80 C 511.03 341.03 511.93 347.24 511.85 353.50 C 510.82 357.60 510.73 361.84 511.28 366.02 C 511.62 365.65 512.29 364.90 512.63 364.52 C 513.13 369.19 513.79 373.85 513.82 378.54 C 513.33 382.44 511.64 387.06 514.70 390.36 C 515.12 398.07 515.78 405.77 515.87 413.50 C 514.43 419.59 515.10 425.87 515.02 432.06 C 515.01 436.25 514.79 440.62 516.66 444.50 C 517.01 447.84 517.04 451.21 516.88 454.56 C 515.73 459.98 515.94 465.55 516.13 471.05 C 516.11 472.93 516.92 474.66 517.61 476.37 C 519.19 490.36 519.01 504.60 522.08 518.40 C 522.59 521.12 522.81 523.88 523.10 526.64 C 523.32 531.28 523.83 535.92 524.86 540.46 C 527.89 560.64 530.65 580.91 535.25 600.80 C 536.37 605.33 539.16 610.13 537.83 614.80 C 535.37 614.79 533.52 612.54 532.34 610.59 C 525.37 597.92 522.41 583.55 519.94 569.44 C 518.93 558.82 517.06 548.30 515.32 537.78 C 514.60 533.16 513.49 528.50 510.99 524.49 L 510.47 523.60 C 510.45 523.56 510.41 523.49 510.38 523.45 C 509.68 522.29 508.98 521.17 508.34 520.00 C 507.35 517.93 506.02 516.02 504.11 514.72 C 499.77 511.20 494.89 508.06 489.30 507.06 L 489.48 506.14 C 489.53 505.86 489.63 505.30 489.69 505.02 C 486.00 504.96 482.11 504.57 478.71 506.30 C 476.96 507.07 475.35 508.08 473.77 509.14 L 473.02 509.65 C 472.70 509.67 472.08 509.71 471.77 509.73 C 471.33 510.03 470.44 510.61 470.00 510.91 C 469.63 511.17 468.88 511.70 468.50 511.97 C 465.51 511.93 464.20 514.32 463.56 516.88 C 462.90 518.57 461.85 520.07 460.97 521.65 C 459.53 523.95 459.17 526.67 458.78 529.30 L 458.75 529.46 C 458.39 531.47 458.05 533.49 457.79 535.53 C 456.74 540.71 456.73 546.04 457.50 551.26 C 457.70 550.88 458.10 550.11 458.30 549.73 L 458.82 548.69 C 459.93 554.89 460.99 561.15 461.75 567.40 C 460.65 571.41 461.28 575.51 462.67 579.36 C 462.90 577.49 463.13 575.61 463.29 573.74 C 466.39 588.23 467.97 603.09 467.27 617.92 C 467.01 620.49 466.82 623.12 466.00 625.59 C 464.05 631.24 462.08 636.87 459.70 642.35 C 459.14 642.98 458.57 643.60 457.98 644.22 C 457.15 643.30 455.84 642.46 456.16 641.02 C 456.31 636.57 458.07 632.37 458.32 627.93 C 459.72 611.38 458.76 594.61 455.00 578.42 C 454.29 574.17 452.86 569.89 449.72 566.80 L 449.37 566.40 L 449.23 565.74 C 449.12 564.21 447.87 563.09 446.43 562.81 L 445.49 562.50 L 445.23 561.57 C 445.06 559.95 443.51 559.13 442.07 558.94 C 439.28 558.25 436.75 556.83 433.99 556.07 C 427.58 554.45 420.77 555.96 415.03 559.02 C 410.92 561.26 408.58 565.49 406.32 569.40 C 403.31 574.85 403.42 581.25 402.69 587.27 L 402.34 586.32 C 402.05 585.51 401.75 584.72 401.44 583.94 C 400.89 591.96 400.99 600.01 401.35 608.04 C 401.69 607.65 402.36 606.86 402.70 606.47 C 403.22 620.48 405.24 634.39 405.81 648.40 C 404.57 654.40 404.18 660.68 405.76 666.66 C 405.15 676.82 402.18 686.65 398.01 695.88 C 397.16 698.16 395.67 700.45 393.03 700.77 C 390.14 697.90 393.31 693.60 393.96 690.27 C 396.14 684.49 396.76 678.31 398.27 672.36 C 400.48 670.49 400.04 667.47 400.14 664.91 C 400.07 658.90 400.18 652.89 399.74 646.90 C 399.46 647.28 398.89 648.06 398.61 648.44 C 397.78 642.61 397.42 636.67 395.85 630.98 C 395.36 629.00 394.18 627.32 392.73 625.94 C 387.22 620.47 378.50 617.72 371.36 621.75 C 368.76 622.64 366.94 624.75 365.70 627.12 C 364.76 628.62 363.91 630.17 362.93 631.65 C 362.45 632.33 361.97 633.02 361.49 633.71 C 357.71 637.60 358.04 643.26 357.41 648.26 C 356.98 655.00 355.86 661.97 357.92 668.57 C 357.43 683.61 355.67 698.59 354.60 713.60 C 352.47 717.03 352.99 721.15 352.96 725.00 C 353.03 733.33 352.90 741.68 353.35 750.01 C 353.62 749.67 354.17 748.97 354.44 748.62 C 354.78 750.96 355.29 753.29 355.93 755.58 C 356.52 757.54 356.77 759.57 356.98 761.61 C 357.21 765.70 358.47 769.62 359.89 773.44 L 359.93 773.59 C 360.64 778.35 361.70 783.12 363.93 787.42 C 365.17 790.12 366.07 792.97 366.83 795.85 C 369.20 804.93 372.43 813.82 376.18 822.43 L 376.24 822.59 C 377.39 827.39 378.83 832.18 381.41 836.43 L 381.67 836.90 C 381.69 837.28 381.72 838.03 381.73 838.40 C 381.57 840.19 382.50 841.78 383.62 843.12 C 385.28 845.43 385.99 848.25 387.06 850.86 C 389.75 858.35 392.96 865.65 395.66 873.13 C 395.67 873.68 395.68 874.78 395.69 875.32 C 395.28 876.84 396.18 878.14 397.32 879.07 L 397.88 879.99 C 398.06 881.74 398.31 883.70 399.83 884.86 L 400.53 885.55 C 405.47 900.65 412.24 915.18 416.03 930.64 C 416.39 933.26 417.11 935.80 417.99 938.30 L 418.10 938.68 C 418.53 941.61 419.10 944.53 420.03 947.35 C 421.54 955.54 422.73 963.88 422.44 972.24 C 423.00 970.96 423.51 969.67 424.10 968.43 C 428.79 960.05 430.26 950.53 431.65 941.19 C 432.34 942.40 433.47 943.28 434.43 944.30 C 436.17 952.31 433.81 960.38 432.22 968.22 L 432.01 968.66 C 429.84 971.96 428.24 975.57 427.13 979.36 C 426.30 981.48 425.22 983.50 424.00 985.43 C 422.08 988.07 420.80 991.09 419.93 994.23 L 419.83 994.50 C 417.98 998.26 416.69 1002.27 416.02 1006.41 L 415.93 1006.81 C 413.66 1013.50 414.07 1020.58 413.84 1027.53 C 412.58 1032.31 412.91 1037.28 413.63 1042.13 C 413.89 1041.51 414.40 1040.26 414.66 1039.64 C 414.73 1040.90 414.79 1042.16 414.82 1043.44 C 413.58 1048.56 413.86 1053.84 413.96 1059.07 C 414.17 1065.32 411.68 1071.62 413.80 1077.76 C 413.21 1087.03 410.69 1096.05 410.03 1105.32 L 409.93 1105.67 C 406.99 1114.22 405.69 1123.21 403.05 1131.86 C 401.33 1139.48 398.44 1146.80 397.18 1154.52 C 394.83 1163.44 391.99 1172.27 388.92 1180.96 C 385.30 1188.35 383.75 1196.50 380.97 1204.20 C 379.77 1208.44 377.76 1212.64 378.21 1217.16 L 378.25 1218.28 C 377.25 1219.06 376.22 1219.25 375.17 1218.84 C 374.34 1217.38 374.94 1215.72 375.12 1214.22 C 377.62 1201.63 382.29 1189.52 383.93 1176.76 C 384.38 1173.29 385.10 1169.85 386.15 1166.52 C 387.31 1163.69 387.80 1160.66 388.03 1157.64 C 388.47 1154.62 389.35 1151.70 390.08 1148.76 L 390.63 1149.61 C 390.87 1149.95 391.36 1150.65 391.60 1151.00 C 392.74 1145.05 394.56 1139.25 395.48 1133.26 C 396.54 1125.38 399.40 1117.89 400.31 1109.98 C 401.00 1104.11 404.40 1098.24 402.16 1092.34 C 402.71 1086.41 403.34 1080.50 404.37 1074.65 C 404.70 1074.97 405.36 1075.62 405.69 1075.95 C 406.23 1071.13 406.17 1066.26 405.15 1061.52 C 405.05 1056.83 405.09 1052.15 405.15 1047.47 C 406.78 1039.06 405.57 1030.48 405.84 1021.99 C 405.63 1016.72 406.93 1011.49 406.33 1006.22 C 406.89 1003.70 407.35 1001.16 407.93 998.65 L 408.05 998.32 C 410.45 993.21 412.02 987.78 413.49 982.34 C 415.56 978.54 415.09 974.09 414.91 969.95 C 414.93 968.35 414.15 966.96 413.35 965.66 C 412.02 956.62 411.28 947.37 408.01 938.76 C 406.03 932.54 404.49 926.18 402.14 920.08 C 401.44 917.61 399.96 915.20 400.32 912.57 C 400.66 910.87 400.44 908.79 398.63 908.05 L 397.97 907.62 C 396.75 901.68 394.47 896.01 391.70 890.64 C 391.59 890.14 391.37 889.15 391.26 888.65 C 390.33 882.23 387.81 875.97 384.12 870.65 L 383.93 870.39 C 383.37 867.66 382.43 865.03 381.04 862.63 C 377.98 855.81 375.18 848.80 373.15 841.62 C 372.45 836.63 371.30 831.55 368.06 827.55 C 366.69 825.26 365.66 822.71 365.22 820.08 C 365.12 816.95 364.32 813.90 362.15 811.57 C 360.77 809.46 360.33 806.92 359.44 804.61 C 357.01 796.80 353.95 789.18 352.03 781.22 C 353.56 776.80 351.34 772.36 350.65 768.02 L 349.93 768.12 C 350.41 771.25 350.76 774.40 351.10 777.56 C 349.84 773.23 348.62 768.87 347.95 764.42 C 347.69 760.69 347.13 756.99 346.14 753.39 C 345.43 750.11 345.22 746.75 345.14 743.42 C 345.18 737.20 344.69 730.97 345.43 724.78 C 345.72 726.28 346.04 727.78 346.39 729.29 C 347.22 725.35 347.15 721.32 346.23 717.41 C 346.29 716.73 346.37 716.05 346.45 715.39 C 348.72 711.72 348.21 707.40 347.17 703.44 C 348.09 688.14 349.61 672.88 350.40 657.58 C 351.09 650.65 350.68 643.62 352.16 636.78 C 353.28 631.34 355.77 626.27 358.94 621.75 C 366.93 611.76 382.46 609.39 393.05 616.60 C 393.87 617.08 394.69 617.57 395.51 618.08 C 395.30 614.89 395.09 611.71 395.12 608.52 C 395.76 605.07 396.19 601.58 396.04 598.07 C 395.81 591.84 396.42 585.55 395.22 579.38 C 395.28 577.48 395.41 575.58 395.61 573.70 L 395.71 573.37 C 397.57 569.50 399.50 565.66 401.23 561.72 C 402.48 559.73 403.87 557.52 405.95 556.35 C 406.52 556.39 407.65 556.47 408.22 556.51 C 412.51 554.36 416.43 551.23 421.28 550.41 C 425.64 549.78 430.06 550.09 434.44 549.60 C 427.81 548.14 421.09 549.27 414.62 550.90 L 413.71 551.09 C 422.15 547.08 432.28 547.24 440.97 550.40 C 444.67 551.61 447.52 554.40 450.74 556.47 C 449.86 546.08 447.92 535.36 450.96 525.13 C 451.00 527.61 451.21 530.09 451.55 532.55 C 452.22 529.14 452.41 525.66 451.88 522.23 L 451.99 522.12 C 453.87 520.74 454.96 518.70 454.99 516.36 L 455.37 515.75 L 455.92 515.21 C 458.41 513.14 461.03 511.04 462.19 507.90 L 462.37 507.55 L 463.00 507.25 C 465.62 506.12 467.96 504.48 470.19 502.71 C 471.37 501.94 472.68 501.17 474.14 501.21 C 480.01 501.43 486.29 502.28 491.78 499.72 C 495.93 500.86 500.09 502.29 503.60 504.86 C 506.33 507.67 509.01 510.54 512.04 513.04 L 512.17 512.46 C 513.63 508.41 513.22 504.10 512.66 499.94 C 511.89 494.30 512.00 488.60 511.85 482.92 C 511.46 483.30 510.69 484.05 510.31 484.43 C 509.85 473.80 509.10 463.18 509.11 452.54 C 509.53 450.03 509.95 447.52 509.98 444.97 C 510.04 435.26 510.39 425.52 509.46 415.84 C 509.05 417.74 508.65 419.65 508.32 421.57 L 508.06 420.33 C 507.84 419.06 507.42 417.77 507.62 416.48 C 507.72 415.98 507.92 414.99 508.02 414.49 C 509.70 408.75 509.12 402.70 508.30 396.87 L 507.31 398.32 C 507.24 397.05 507.18 395.78 507.16 394.52 C 508.35 389.31 508.17 383.94 507.37 378.69 C 507.12 379.34 506.61 380.65 506.36 381.30 C 505.99 375.69 505.38 370.10 505.17 364.48 C 506.56 358.34 506.16 352.03 505.42 345.84 C 505.02 347.31 504.64 348.80 504.29 350.29 C 504.16 348.04 504.06 345.79 504.10 343.55 C 505.73 337.50 504.92 331.22 505.08 325.05 C 505.18 321.81 504.72 318.60 504.11 315.44 C 503.86 305.04 505.83 294.78 507.60 284.59 L 508.19 283.82 C 509.35 282.53 510.38 280.95 510.20 279.13 C 510.21 278.72 510.22 277.90 510.23 277.49 L 511.06 277.02 C 512.51 276.42 513.19 274.81 513.12 273.32 L 513.18 272.22 L 513.93 272.00 C 514.24 271.59 514.87 270.77 515.18 270.36 C 515.32 269.06 516.08 268.32 517.45 268.15 C 518.85 267.95 520.36 267.02 520.18 265.41 L 520.27 264.21 L 520.85 264.03 M 514.44 300.54 C 515.43 295.02 515.01 289.30 514.61 283.74 C 513.77 289.29 514.05 294.96 514.44 300.54 M 562.27 361.44 C 561.42 363.14 561.19 366.36 562.68 367.57 C 563.20 365.80 563.68 362.65 562.27 361.44 M 647.22 509.92 C 643.64 516.56 640.20 523.72 640.08 531.40 C 638.08 541.67 637.41 553.04 642.66 562.50 L 642.45 563.32 C 643.38 562.86 643.88 562.12 643.96 561.11 C 645.49 551.09 647.17 541.10 648.65 531.08 C 650.32 523.88 651.14 516.49 650.80 509.10 C 649.59 509.37 648.41 509.65 647.22 509.92 M 460.50 601.89 C 460.10 609.62 460.15 617.37 460.42 625.10 C 461.26 617.40 461.34 609.58 460.50 601.89 M 373.90 618.67 C 378.02 618.95 382.16 619.12 386.24 619.80 C 382.61 617.25 377.99 617.62 373.90 618.67 M 623.31 738.21 C 624.77 732.54 624.04 726.57 623.48 720.82 C 622.56 726.57 622.93 732.43 623.31 738.21 Z" />
<path fill="#cc6f4c" opacity="1.00" d=" M 376.76 731.49 C 375.68 724.69 374.84 717.36 377.23 710.76 C 377.83 717.65 378.59 724.71 376.76 731.49 Z" />
</g>
<g id="#e47c54fb">
<path fill="#e47c54" opacity="1.00" d=" M 517.45 268.15 C 516.82 266.83 518.85 264.73 520.18 265.41 C 520.36 267.02 518.85 267.95 517.45 268.15 Z" />
<path fill="#e47c54" opacity="1.00" d=" M 540.78 487.81 C 547.53 488.81 554.17 487.17 560.86 486.59 C 560.42 487.22 559.52 488.48 559.08 489.12 C 553.19 491.33 546.73 491.70 540.63 490.15 C 539.84 489.27 539.89 488.49 540.78 487.81 Z" />
<path fill="#e47c54" opacity="1.00" d=" M 455.92 515.21 C 456.90 512.00 459.84 510.06 462.19 507.90 C 461.03 511.04 458.41 513.14 455.92 515.21 Z" />
<path fill="#e47c54" opacity="1.00" d=" M 450.96 525.13 C 451.22 524.14 451.52 523.17 451.88 522.23 C 452.41 525.66 452.22 529.14 451.55 532.55 C 451.21 530.09 451.00 527.61 450.96 525.13 Z" />
<path fill="#e47c54" opacity="1.00" d=" M 461.75 567.40 C 462.47 569.45 462.96 571.58 463.29 573.74 C 463.13 575.61 462.90 577.49 462.67 579.36 C 461.28 575.51 460.65 571.41 461.75 567.40 Z" />
<path fill="#e47c54" opacity="1.00" d=" M 349.93 768.12 L 350.65 768.02 C 351.34 772.36 353.56 776.80 352.03 781.22 C 351.64 780.01 351.33 778.79 351.10 777.56 C 350.76 774.40 350.41 771.25 349.93 768.12 Z" />
<path fill="#e47c54" opacity="1.00" d=" M 368.06 827.55 C 371.30 831.55 372.45 836.63 373.15 841.62 L 372.69 841.63 C 371.53 836.81 369.16 832.38 368.06 827.55 Z" />
<path fill="#e47c54" opacity="1.00" d=" M 626.84 853.24 C 627.18 848.29 628.65 843.44 631.83 839.57 C 630.28 844.16 628.79 848.79 626.84 853.24 Z" />
<path fill="#e47c54" opacity="1.00" d=" M 618.05 874.56 C 618.79 869.21 620.98 864.14 624.19 859.83 C 622.47 864.88 620.27 869.75 618.36 874.74 L 618.05 874.56 Z" />
<path fill="#e47c54" opacity="1.00" d=" M 395.69 875.32 L 396.17 875.16 C 397.44 875.79 398.17 877.85 397.32 879.07 C 396.18 878.14 395.28 876.84 395.69 875.32 Z" />
<path fill="#e47c54" opacity="1.00" d=" M 612.89 885.25 C 612.83 881.91 614.63 879.10 617.00 876.92 C 615.93 880.16 614.42 883.24 612.80 886.25 L 612.89 885.25 Z" />
<path fill="#e47c54" opacity="1.00" d=" M 609.02 894.53 C 608.97 891.93 609.79 889.49 611.97 887.95 C 611.13 890.20 610.15 892.40 609.02 894.53 Z" />
<path fill="#e47c54" opacity="1.00" d=" M 602.87 908.36 C 603.30 903.26 605.93 898.71 608.91 894.68 C 607.21 899.68 604.83 904.42 602.76 909.28 L 602.87 908.36 Z" />
<path fill="#e47c54" opacity="1.00" d=" M 398.63 908.05 C 400.44 908.79 400.66 910.87 400.32 912.57 C 398.78 912.36 397.97 909.36 398.63 908.05 Z" />
<path fill="#e47c54" opacity="1.00" d=" M 380.97 1204.20 C 383.75 1196.50 385.30 1188.35 388.92 1180.96 C 386.68 1191.22 382.88 1201.05 380.23 1211.20 C 379.65 1213.21 378.98 1215.20 378.21 1217.16 C 377.76 1212.64 379.77 1208.44 380.97 1204.20 Z" />
</g>
<g id="#8f4528e8">
<path fill="#8f4528" opacity="0.91" d=" M 523.56 269.10 C 526.24 266.46 530.38 266.46 533.12 269.00 C 530.05 267.66 526.64 267.95 523.56 269.10 Z" />
</g>
<g id="#512211c1">
<path fill="#512211" opacity="0.76" d=" M 514.30 270.31 L 515.18 270.36 C 514.87 270.77 514.24 271.59 513.93 272.00 C 514.02 271.58 514.21 270.73 514.30 270.31 Z" />
</g>
<g id="#884125de">
<path fill="#884125" opacity="0.87" d=" M 516.90 279.51 C 517.59 275.88 518.74 271.94 522.23 270.04 C 520.17 273.03 518.41 276.22 516.90 279.51 Z" />
</g>
<g id="#67301bc2">
<path fill="#67301b" opacity="0.76" d=" M 534.04 269.71 C 537.00 271.88 539.01 275.06 540.20 278.49 C 543.48 286.73 543.37 295.73 543.19 304.45 C 542.98 309.00 542.48 313.76 539.80 317.61 C 541.58 312.22 542.27 306.57 542.38 300.92 C 542.58 290.08 541.68 278.16 534.04 269.71 Z" />
</g>
<g id="#733821ea">
<path fill="#733821" opacity="0.92" d=" M 511.06 277.02 C 510.34 275.77 511.57 273.01 513.12 273.32 C 513.19 274.81 512.51 276.42 511.06 277.02 Z" />
</g>
<g id="#813e25da">
<path fill="#813e25" opacity="0.85" d=" M 509.77 278.93 L 510.20 279.13 C 510.38 280.95 509.35 282.53 508.19 283.82 C 507.50 282.22 508.30 279.85 509.77 278.93 Z" />
</g>
<g id="#e97f55fa">
<path fill="#e97f55" opacity="0.98" d=" M 514.44 300.54 C 514.05 294.96 513.77 289.29 514.61 283.74 C 515.01 289.30 515.43 295.02 514.44 300.54 Z" />
</g>
<g id="#632d19c0">
<path fill="#632d19" opacity="0.75" d=" M 503.51 310.98 C 504.16 302.13 504.33 292.94 507.60 284.59 C 505.83 294.78 503.86 305.04 504.11 315.44 C 503.64 324.80 503.95 334.18 504.10 343.55 C 504.06 345.79 504.16 348.04 504.29 350.29 C 504.53 355.02 504.89 359.75 505.17 364.48 C 505.38 370.10 505.99 375.69 506.36 381.30 C 506.57 385.71 506.94 390.11 507.16 394.52 C 507.18 395.78 507.24 397.05 507.31 398.32 C 507.55 403.71 508.13 409.09 508.02 414.49 C 507.92 414.99 507.72 415.98 507.62 416.48 C 506.40 410.90 507.45 405.15 506.62 399.53 C 505.55 392.40 506.41 385.15 505.16 378.03 C 505.14 369.51 503.72 361.08 503.87 352.55 C 502.60 338.74 502.65 324.82 503.51 310.98 Z" />
</g>
<g id="#70341dcf">
<path fill="#70341d" opacity="0.81" d=" M 549.06 284.73 C 551.54 288.76 552.57 293.41 553.80 297.93 C 555.88 306.34 558.36 314.73 558.92 323.42 C 556.14 310.40 553.12 297.42 549.06 284.73 Z" />
</g>
<g id="#6e321cc4">
<path fill="#6e321c" opacity="0.77" d=" M 511.47 294.69 C 511.98 299.22 512.61 303.74 512.72 308.30 C 512.24 307.43 511.76 306.56 511.29 305.69 C 511.07 316.45 510.74 327.25 511.86 337.97 C 512.44 360.72 515.72 383.30 516.23 406.05 C 517.04 414.35 517.10 422.67 517.06 431.00 C 516.92 437.98 517.72 444.92 517.85 451.90 C 518.24 459.57 517.66 467.28 518.45 474.93 C 519.22 481.23 518.85 487.61 519.80 493.89 C 520.15 502.10 521.64 510.21 522.08 518.40 C 519.01 504.60 519.19 490.36 517.61 476.37 C 517.21 469.10 517.07 461.83 516.88 454.56 C 517.04 451.21 517.01 447.84 516.66 444.50 C 516.29 434.17 516.09 423.83 515.87 413.50 C 515.78 405.77 515.12 398.07 514.70 390.36 C 514.36 386.42 513.97 382.49 513.82 378.54 C 513.79 373.85 513.13 369.19 512.63 364.52 C 512.34 360.85 512.00 357.18 511.85 353.50 C 511.93 347.24 511.03 341.03 510.76 334.80 C 509.73 323.67 510.25 312.50 510.49 301.35 C 510.86 299.14 511.15 296.91 511.47 294.69 Z" />
</g>
<g id="#d8734ef9">
<path fill="#d8734e" opacity="0.98" d=" M 545.05 298.02 C 545.55 298.19 546.55 298.55 547.06 298.72 C 547.26 299.81 547.47 300.90 547.70 301.99 C 546.36 309.04 547.47 316.92 543.01 323.05 C 542.71 323.48 542.10 324.34 541.80 324.77 C 541.50 325.95 540.72 326.75 539.46 327.17 C 539.15 327.15 538.53 327.11 538.22 327.09 C 540.01 324.34 541.40 321.34 542.16 318.14 C 540.42 320.40 538.92 322.92 536.66 324.71 C 534.49 326.49 531.54 325.97 528.95 326.05 C 530.59 325.36 532.25 324.70 533.90 324.01 C 534.42 323.78 535.46 323.32 535.98 323.09 C 537.86 322.53 538.86 320.75 539.30 318.95 C 539.42 318.62 539.67 317.94 539.80 317.61 C 542.48 313.76 542.98 309.00 543.19 304.45 C 543.62 306.29 544.14 308.12 544.65 309.95 C 544.59 305.97 544.72 301.98 545.05 298.02 Z" />
</g>
<g id="#e8815afb">
<path fill="#e8815a" opacity="1.00" d=" M 509.00 317.00 C 509.15 311.76 508.35 306.30 510.49 301.35 C 510.25 312.50 509.73 323.67 510.76 334.80 C 510.41 335.36 509.69 336.48 509.34 337.04 C 509.03 330.36 508.89 323.68 509.00 317.00 Z" />
</g>
<g id="#dd754ff9">
<path fill="#dd754f" opacity="0.98" d=" M 513.11 309.86 C 515.66 314.85 518.18 319.88 520.13 325.15 C 516.49 320.86 513.84 315.46 513.11 309.86 Z" />
<path fill="#dd754f" opacity="0.98" d=" M 463.56 516.88 C 464.20 514.32 465.51 511.93 468.50 511.97 L 468.67 512.31 C 466.70 513.52 465.07 515.15 463.56 516.88 Z" />
<path fill="#dd754f" opacity="0.98" d=" M 454.58 516.26 L 454.99 516.36 C 454.96 518.70 453.87 520.74 451.99 522.12 C 452.73 520.12 453.57 518.14 454.58 516.26 Z" />
<path fill="#dd754f" opacity="0.98" d=" M 587.78 520.63 C 589.11 524.88 589.48 529.38 590.29 533.76 C 590.19 536.30 589.93 538.84 589.68 541.37 C 588.32 534.57 586.07 527.58 587.78 520.63 Z" />
<path fill="#dd754f" opacity="0.98" d=" M 492.97 685.02 C 492.44 682.12 492.75 679.17 493.74 676.41 C 495.26 687.73 496.24 699.19 494.85 710.58 C 494.73 711.12 494.50 712.22 494.38 712.77 C 493.74 712.38 492.45 711.59 491.81 711.19 C 491.72 708.52 491.64 705.84 491.37 703.19 C 492.16 702.89 492.96 702.60 493.76 702.32 C 493.80 696.54 493.83 690.75 492.97 685.02 Z" />
<path fill="#dd754f" opacity="0.98" d=" M 362.15 811.57 C 364.32 813.90 365.12 816.95 365.22 820.08 C 363.81 817.40 362.75 814.53 362.15 811.57 Z" />
</g>
<g id="#592816b1">
<path fill="#592816" opacity="0.69" d=" M 549.96 311.59 C 551.12 316.06 551.84 320.63 552.06 325.25 C 550.74 320.82 550.04 316.20 549.96 311.59 Z" />
</g>
<g id="#e97e56fc">
<path fill="#e97e56" opacity="1.00" d=" M 504.11 315.44 C 504.72 318.60 505.18 321.81 505.08 325.05 C 504.92 331.22 505.73 337.50 504.10 343.55 C 503.95 334.18 503.64 324.80 504.11 315.44 Z" />
</g>
<g id="#7c3922dd">
<path fill="#7c3922" opacity="0.87" d=" M 521.56 317.87 C 523.56 320.32 525.90 322.47 528.51 324.26 C 525.10 323.64 522.75 320.99 521.56 317.87 Z" />
</g>
<g id="#582716a0">
<path fill="#582716" opacity="0.63" d=" M 535.98 323.09 C 536.03 321.15 537.22 319.16 539.30 318.95 C 538.86 320.75 537.86 322.53 535.98 323.09 Z" />
</g>
<g id="#632f1ac3">
<path fill="#632f1a" opacity="0.76" d=" M 541.80 324.77 C 542.10 324.34 542.71 323.48 543.01 323.05 L 543.33 323.91 L 542.71 324.79 L 541.80 324.77 Z" />
</g>
<g id="#713620bf">
<path fill="#713620" opacity="0.75" d=" M 520.95 326.11 C 525.55 328.89 530.91 330.14 536.26 329.39 C 531.02 330.95 524.88 330.15 520.95 326.11 Z" />
</g>
<g id="#582714af">
<path fill="#582714" opacity="0.69" d=" M 552.11 325.62 C 553.40 330.77 553.91 336.06 553.89 341.37 C 552.66 336.24 552.48 330.87 552.11 325.62 Z" />
</g>
<g id="#e67f58fa">
<path fill="#e67f58" opacity="0.98" d=" M 555.44 339.76 C 556.18 345.70 557.71 351.78 556.17 357.73 C 555.75 352.29 554.88 346.90 554.57 341.46 C 554.79 341.03 555.22 340.19 555.44 339.76 Z" />
</g>
<g id="#672f1abf">
<path fill="#672f1a" opacity="0.75" d=" M 553.97 342.62 L 554.57 341.46 C 554.88 346.90 555.75 352.29 556.17 357.73 C 557.95 379.58 561.03 401.34 564.83 422.95 C 566.12 431.73 568.45 440.35 568.97 449.23 C 567.03 442.68 566.59 435.80 565.16 429.13 C 562.05 410.79 558.80 392.46 556.95 373.95 C 555.89 363.52 554.35 353.08 553.97 342.62 Z" />
</g>
<g id="#e77f58fb">
<path fill="#e77f58" opacity="1.00" d=" M 505.42 345.84 C 506.16 352.03 506.56 358.34 505.17 364.48 C 504.89 359.75 504.53 355.02 504.29 350.29 C 504.64 348.80 505.02 347.31 505.42 345.84 Z" />
</g>
<g id="#e78058fc">
<path fill="#e78058" opacity="1.00" d=" M 511.28 366.02 C 510.73 361.84 510.82 357.60 511.85 353.50 C 512.00 357.18 512.34 360.85 512.63 364.52 C 512.29 364.90 511.62 365.65 511.28 366.02 Z" />
</g>
<g id="#eb825afb">
<path fill="#eb825a" opacity="1.00" d=" M 562.27 361.44 C 563.68 362.65 563.20 365.80 562.68 367.57 C 561.19 366.36 561.42 363.14 562.27 361.44 Z" />
</g>
<g id="#4c211198">
<path fill="#4c2111" opacity="0.60" d=" M 522.54 370.78 C 526.78 368.70 531.61 369.02 536.20 368.80 C 539.19 368.78 542.23 368.47 545.20 368.99 C 546.60 369.23 547.03 370.57 547.12 371.80 C 546.60 371.36 545.56 370.47 545.04 370.03 C 537.56 368.95 529.98 369.93 522.54 370.78 Z" />
</g>
<g id="#dc784ef8">
<path fill="#dc784e" opacity="0.97" d=" M 522.54 370.78 C 529.98 369.93 537.56 368.95 545.04 370.03 C 545.56 370.47 546.60 371.36 547.12 371.80 C 546.47 371.90 545.16 372.09 544.51 372.18 C 537.21 372.62 529.92 373.94 522.60 373.38 L 521.75 373.31 C 521.94 372.68 522.34 371.41 522.54 370.78 Z" />
</g>
<g id="#77391fcc">
<path fill="#77391f" opacity="0.80" d=" M 522.60 373.38 C 529.92 373.94 537.21 372.62 544.51 372.18 C 540.60 373.93 536.26 373.82 532.09 374.19 C 528.92 374.36 525.55 374.84 522.60 373.38 Z" />
</g>
<g id="#e88059fb">
<path fill="#e88059" opacity="1.00" d=" M 507.37 378.69 C 508.17 383.94 508.35 389.31 507.16 394.52 C 506.94 390.11 506.57 385.71 506.36 381.30 C 506.61 380.65 507.12 379.34 507.37 378.69 Z" />
</g>
<g id="#e7805afa">
<path fill="#e7805a" opacity="0.98" d=" M 514.70 390.36 C 511.64 387.06 513.33 382.44 513.82 378.54 C 513.97 382.49 514.36 386.42 514.70 390.36 Z" />
</g>
<g id="#703620bb">
<path fill="#703620" opacity="0.73" d=" M 528.24 380.49 C 534.91 379.85 541.58 378.57 548.31 378.97 C 547.92 380.24 547.44 381.70 546.05 382.19 C 541.62 384.43 536.44 384.84 531.59 384.19 C 529.99 383.64 526.82 382.70 528.24 380.49 M 528.65 381.32 C 534.57 384.25 542.73 384.78 547.62 379.66 C 541.27 379.83 534.96 380.67 528.65 381.32 Z" />
</g>
<g id="#df7b52f9">
<path fill="#df7b52" opacity="0.98" d=" M 528.65 381.32 C 534.96 380.67 541.27 379.83 547.62 379.66 C 542.73 384.78 534.57 384.25 528.65 381.32 Z" />
</g>
<g id="#e88058fb">
<path fill="#e88058" opacity="1.00" d=" M 508.30 396.87 C 509.12 402.70 509.70 408.75 508.02 414.49 C 508.13 409.09 507.55 403.71 507.31 398.32 L 508.30 396.87 Z" />
</g>
<g id="#e57e56f9">
<path fill="#e57e56" opacity="0.98" d=" M 515.02 432.06 C 515.10 425.87 514.43 419.59 515.87 413.50 C 516.09 423.83 516.29 434.17 516.66 444.50 C 514.79 440.62 515.01 436.25 515.02 432.06 Z" />
</g>
<g id="#e77f58fc">
<path fill="#e77f58" opacity="1.00" d=" M 509.46 415.84 C 510.39 425.52 510.04 435.26 509.98 444.97 C 509.95 447.52 509.53 450.03 509.11 452.54 C 508.79 442.22 509.25 431.87 508.32 421.57 C 508.65 419.65 509.05 417.74 509.46 415.84 Z" />
</g>
<g id="#682f1ac4">
<path fill="#682f1a" opacity="0.77" d=" M 571.98 419.53 C 573.22 422.15 573.13 425.12 573.74 427.91 C 577.95 450.18 581.25 472.60 584.72 494.99 C 585.13 501.50 587.04 507.84 587.00 514.38 C 584.97 506.06 584.48 497.48 583.10 489.05 C 579.92 471.71 578.23 454.12 574.44 436.90 C 574.57 435.46 574.37 434.02 573.83 432.70 C 572.79 428.38 572.20 423.97 571.98 419.53 Z" />
</g>
<g id="#753821ce">
<path fill="#753821" opacity="0.81" d=" M 508.06 420.33 L 508.32 421.57 C 509.25 431.87 508.79 442.22 509.11 452.54 C 509.10 463.18 509.85 473.80 510.31 484.43 C 510.84 493.78 511.78 503.10 512.17 512.46 L 512.04 513.04 C 509.01 510.54 506.33 507.67 503.60 504.86 C 506.61 506.39 508.67 509.13 511.09 511.40 C 511.13 502.90 509.84 494.47 509.71 485.98 C 508.66 477.37 509.13 468.67 508.47 460.03 C 507.62 450.37 508.20 440.66 507.93 430.97 C 507.81 427.42 507.70 423.87 508.06 420.33 Z" />
</g>
<g id="#ef865dfa">
<path fill="#ef865d" opacity="0.98" d=" M 573.83 432.70 C 574.37 434.02 574.57 435.46 574.44 436.90 C 572.90 436.05 572.33 433.89 573.83 432.70 Z" />
</g>
<g id="#68301bc3">
<path fill="#68301b" opacity="0.76" d=" M 569.06 449.71 C 573.97 472.53 576.07 495.85 579.66 518.90 C 581.69 534.13 584.53 549.24 586.97 564.40 C 585.60 561.29 585.16 557.89 584.55 554.59 C 579.51 527.56 576.56 500.23 572.37 473.07 C 571.66 465.23 569.25 457.60 569.06 449.71 Z" />
</g>
<g id="#e78057fb">
<path fill="#e78057" opacity="1.00" d=" M 516.13 471.05 C 515.94 465.55 515.73 459.98 516.88 454.56 C 517.07 461.83 517.21 469.10 517.61 476.37 C 516.92 474.66 516.11 472.93 516.13 471.05 Z" />
</g>
<g id="#5b2a17a8">
<path fill="#5b2a17" opacity="0.66" d=" M 531.96 467.68 C 535.92 464.70 541.30 464.92 546.05 464.67 C 548.81 464.98 552.65 464.11 553.93 467.35 C 548.57 469.59 542.76 470.28 537.01 470.56 C 535.49 470.70 534.01 470.35 532.62 469.77 C 539.38 469.72 546.53 469.83 552.68 466.60 C 545.91 464.51 538.62 465.82 531.96 467.68 Z" />
</g>
<g id="#de784ff9">
<path fill="#de784f" opacity="0.98" d=" M 531.96 467.68 C 538.62 465.82 545.91 464.51 552.68 466.60 C 546.53 469.83 539.38 469.72 532.62 469.77 L 531.80 469.77 C 531.84 469.25 531.92 468.21 531.96 467.68 Z" />
<path fill="#de784f" opacity="0.98" d=" M 609.95 538.57 C 610.46 534.01 613.79 530.62 617.00 527.67 C 614.76 531.34 612.17 534.80 610.34 538.71 L 609.95 538.57 Z" />
<path fill="#de784f" opacity="0.98" d=" M 384.12 870.65 C 387.81 875.97 390.33 882.23 391.26 888.65 L 390.86 888.69 C 388.86 882.58 385.81 876.86 384.12 870.65 Z" />
</g>
<g id="#d4724bf8">
<path fill="#d4724b" opacity="0.97" d=" M 534.72 476.95 C 539.48 476.33 544.33 476.65 549.09 475.82 C 551.69 475.60 554.47 474.82 556.99 475.87 C 556.70 478.92 552.79 479.13 550.52 480.20 C 544.73 481.07 538.38 482.31 532.82 479.84 C 531.11 478.34 533.40 477.18 534.72 476.95 Z" />
</g>
<g id="#e37c56fa">
<path fill="#e37c56" opacity="0.98" d=" M 510.31 484.43 C 510.69 484.05 511.46 483.30 511.85 482.92 C 512.00 488.60 511.89 494.30 512.66 499.94 C 513.22 504.10 513.63 508.41 512.17 512.46 C 511.78 503.10 510.84 493.78 510.31 484.43 Z" />
</g>
<g id="#602b17b4">
<path fill="#602b17" opacity="0.71" d=" M 550.89 487.01 C 554.23 486.85 557.56 485.37 560.86 486.59 C 554.17 487.17 547.53 488.81 540.78 487.81 C 544.05 486.70 547.52 487.34 550.89 487.01 Z" />
</g>
<g id="#72361fd0">
<path fill="#72361f" opacity="0.82" d=" M 540.63 490.15 C 546.73 491.70 553.19 491.33 559.08 489.12 C 553.79 492.39 546.07 493.65 540.63 490.15 Z" />
</g>
<g id="#d2744df5">
<path fill="#d2744d" opacity="0.96" d=" M 474.14 501.21 C 479.61 498.57 485.93 499.07 491.78 499.72 C 486.29 502.28 480.01 501.43 474.14 501.21 Z" />
</g>
<g id="#803e26d4">
<path fill="#803e26" opacity="0.83" d=" M 463.00 507.25 C 465.09 505.31 467.41 503.53 470.19 502.71 C 467.96 504.48 465.62 506.12 463.00 507.25 Z" />
</g>
<g id="#70351ecb">
<path fill="#70351e" opacity="0.80" d=" M 653.87 503.66 C 657.77 506.40 656.94 511.84 656.88 515.99 C 655.21 537.28 650.26 558.49 652.64 579.93 C 652.72 585.09 654.05 590.16 653.87 595.32 C 650.68 580.11 651.09 564.41 652.18 548.99 C 653.57 536.03 656.25 523.14 655.99 510.05 C 656.06 507.72 654.93 505.63 653.87 503.66 Z" />
</g>
<g id="#e97f58fb">
<path fill="#e97f58" opacity="1.00" d=" M 478.71 506.30 C 482.11 504.57 486.00 504.96 489.69 505.02 C 489.63 505.30 489.53 505.86 489.48 506.14 C 485.88 505.98 482.28 505.92 478.71 506.30 Z" />
</g>
<g id="#78381fe5">
<path fill="#78381f" opacity="0.90" d=" M 478.71 506.30 C 482.28 505.92 485.88 505.98 489.48 506.14 L 489.30 507.06 C 484.00 506.58 478.72 507.16 473.77 509.14 C 475.35 508.08 476.96 507.07 478.71 506.30 Z" />
</g>
<g id="#66301bbb">
<path fill="#66301b" opacity="0.73" d=" M 638.84 510.05 C 639.81 509.57 640.80 509.10 641.80 508.65 C 640.48 512.94 638.77 517.10 637.06 521.25 C 633.31 530.45 633.37 540.54 632.72 550.30 C 631.66 544.53 632.83 538.70 633.18 532.93 C 634.05 524.68 637.93 517.29 640.78 509.65 L 638.84 510.05 Z" />
</g>
<g id="#6e331dd0">
<path fill="#6e331d" opacity="0.82" d=" M 647.22 509.92 C 648.41 509.65 649.59 509.37 650.80 509.10 C 651.14 516.49 650.32 523.88 648.65 531.08 C 647.17 541.10 645.49 551.09 643.96 561.11 C 643.88 562.12 643.38 562.86 642.45 563.32 L 642.66 562.50 C 644.48 555.77 644.75 548.74 646.08 541.91 C 647.46 531.06 650.70 520.36 649.97 509.33 C 643.61 514.83 642.41 523.76 640.08 531.40 C 640.20 523.72 643.64 516.56 647.22 509.92 Z" />
</g>
<g id="#592a16a8">
<path fill="#592a16" opacity="0.66" d=" M 470.00 510.91 C 470.44 510.61 471.33 510.03 471.77 509.73 L 471.76 510.64 L 470.87 511.24 L 470.00 510.91 Z" />
</g>
<g id="#7f3d25d4">
<path fill="#7f3d25" opacity="0.83" d=" M 621.79 522.08 C 624.38 518.42 627.94 515.58 631.97 513.65 C 628.70 516.60 625.21 519.31 621.79 522.08 Z" />
</g>
<g id="#783b23c9">
<path fill="#783b23" opacity="0.79" d=" M 504.11 514.72 C 506.02 516.02 507.35 517.93 508.34 520.00 C 506.65 518.47 505.26 516.67 504.11 514.72 Z" />
</g>
<g id="#70341ec5">
<path fill="#70341e" opacity="0.77" d=" M 458.78 529.30 C 459.17 526.67 459.53 523.95 460.97 521.65 C 460.43 524.24 459.92 526.88 458.78 529.30 Z" />
</g>
<g id="#532313d0">
<path fill="#532313" opacity="0.82" d=" M 510.38 523.45 C 510.41 523.49 510.45 523.56 510.47 523.60 C 510.45 523.56 510.41 523.49 510.38 523.45 Z" />
</g>
<g id="#6a311cc9">
<path fill="#6a311c" opacity="0.79" d=" M 510.99 524.49 C 513.49 528.50 514.60 533.16 515.32 537.78 C 517.06 548.30 518.93 558.82 519.94 569.44 C 517.75 562.87 517.82 555.82 516.41 549.07 C 515.01 540.78 513.80 532.44 510.99 524.49 Z" />
</g>
<g id="#682f19c0">
<path fill="#682f19" opacity="0.75" d=" M 523.10 526.64 C 524.19 531.15 525.08 535.79 524.86 540.46 C 523.83 535.92 523.32 531.28 523.10 526.64 Z" />
</g>
<g id="#5c2612dd">
<path fill="#5c2612" opacity="0.87" d=" M 457.79 535.53 C 458.05 533.49 458.39 531.47 458.75 529.46 C 458.95 535.85 459.08 542.32 458.82 548.69 L 458.30 549.73 C 458.19 544.99 457.90 540.26 457.79 535.53 Z" />
</g>
<g id="#e88059fa">
<path fill="#e88059" opacity="0.98" d=" M 457.50 551.26 C 456.73 546.04 456.74 540.71 457.79 535.53 C 457.90 540.26 458.19 544.99 458.30 549.73 C 458.10 550.11 457.70 550.88 457.50 551.26 Z" />
</g>
<g id="#6e331cc8">
<path fill="#6e331c" opacity="0.78" d=" M 599.95 573.95 C 601.36 562.51 603.68 550.91 609.17 540.67 C 607.65 546.66 604.76 552.21 603.46 558.27 C 602.09 565.09 600.75 571.95 600.45 578.91 C 601.86 588.25 605.40 597.14 607.00 606.43 C 604.98 601.65 603.90 596.56 602.55 591.57 C 601.12 585.82 599.15 579.96 599.95 573.95 Z" />
</g>
<g id="#532413a5">
<path fill="#532413" opacity="0.65" d=" M 592.11 545.59 C 593.15 548.08 593.85 550.73 593.72 553.46 C 592.96 550.89 592.35 548.26 592.11 545.59 Z" />
</g>
<g id="#692f17d5">
<path fill="#692f17" opacity="0.84" d=" M 597.68 547.91 L 598.10 548.04 C 598.00 549.84 597.39 551.56 596.40 553.07 C 595.32 551.50 596.18 548.91 597.68 547.91 Z" />
</g>
<g id="#e27d55f9">
<path fill="#e27d55" opacity="0.98" d=" M 414.62 550.90 C 421.09 549.27 427.81 548.14 434.44 549.60 C 430.06 550.09 425.64 549.78 421.28 550.41 C 416.43 551.23 412.51 554.36 408.22 556.51 C 407.65 556.47 406.52 556.39 405.95 556.35 C 406.46 556.06 407.49 555.49 408.00 555.20 C 409.56 554.53 410.93 553.52 412.01 552.21 C 412.66 551.88 413.97 551.23 414.62 550.90 Z" />
</g>
<g id="#542615a8">
<path fill="#542615" opacity="0.66" d=" M 408.00 555.20 C 407.26 553.30 410.36 551.33 412.01 552.21 C 410.93 553.52 409.56 554.53 408.00 555.20 Z" />
</g>
<g id="#733820d2">
<path fill="#733820" opacity="0.82" d=" M 634.00 555.65 C 635.54 559.32 637.20 562.96 639.13 566.46 C 635.82 563.90 634.44 559.66 634.00 555.65 Z" />
</g>
<g id="#864127e4">
<path fill="#864127" opacity="0.89" d=" M 442.07 558.94 C 443.51 559.13 445.06 559.95 445.23 561.57 C 443.86 562.24 442.34 560.57 441.91 559.39 L 442.07 558.94 Z" />
</g>
<g id="#793c25d6">
<path fill="#793c25" opacity="0.84" d=" M 395.71 573.37 C 396.61 569.14 398.23 564.92 401.23 561.72 C 399.50 565.66 397.57 569.50 395.71 573.37 Z" />
</g>
<g id="#773921d9">
<path fill="#773921" opacity="0.85" d=" M 446.43 562.81 C 447.87 563.09 449.12 564.21 449.23 565.74 C 447.80 566.37 445.78 564.17 446.43 562.81 Z" />
</g>
<g id="#622b18c9">
<path fill="#622b18" opacity="0.79" d=" M 587.02 564.64 C 588.54 569.08 589.45 573.68 590.13 578.32 C 588.36 573.99 587.11 569.34 587.02 564.64 Z" />
</g>
<g id="#6c341fc5">
<path fill="#6c341f" opacity="0.77" d=" M 449.72 566.80 C 452.86 569.89 454.29 574.17 455.00 578.42 C 453.53 574.42 451.59 570.62 449.72 566.80 Z" />
</g>
<g id="#682f1aca">
<path fill="#682f1a" opacity="0.79" d=" M 640.91 568.11 C 641.55 568.27 642.83 568.59 643.47 568.75 C 643.75 575.50 643.80 582.28 644.70 588.99 C 645.54 598.96 648.19 608.65 649.58 618.55 L 649.71 619.69 C 648.22 616.35 647.85 612.68 647.15 609.13 C 644.33 596.06 642.64 582.69 642.87 569.31 C 642.38 569.01 641.40 568.41 640.91 568.11 Z" />
</g>
<g id="#672f19c9">
<path fill="#672f19" opacity="0.79" d=" M 394.02 582.01 C 394.11 579.17 394.78 576.40 395.61 573.70 C 395.41 575.58 395.28 577.48 395.22 579.38 C 394.47 589.08 394.85 598.81 395.12 608.52 C 395.09 611.71 395.30 614.89 395.51 618.08 C 394.69 617.57 393.87 617.08 393.05 616.60 L 394.94 616.94 C 393.67 605.35 393.61 593.65 394.02 582.01 Z" />
</g>
<g id="#6c311cd9">
<path fill="#6c311c" opacity="0.85" d=" M 590.18 578.51 C 591.12 581.04 591.68 583.70 591.96 586.40 C 590.91 583.89 590.03 581.26 590.18 578.51 Z" />
</g>
<g id="#ef8760fb">
<path fill="#ef8760" opacity="1.00" d=" M 395.22 579.38 C 396.42 585.55 395.81 591.84 396.04 598.07 C 396.19 601.58 395.76 605.07 395.12 608.52 C 394.85 598.81 394.47 589.08 395.22 579.38 Z" />
</g>
<g id="#e6815cfa">
<path fill="#e6815c" opacity="0.98" d=" M 401.44 583.94 C 401.75 584.72 402.05 585.51 402.34 586.32 C 402.05 593.04 402.32 599.75 402.70 606.47 C 402.36 606.86 401.69 607.65 401.35 608.04 C 400.99 600.01 400.89 591.96 401.44 583.94 Z" />
</g>
<g id="#652d18c3">
<path fill="#652d18" opacity="0.76" d=" M 402.34 586.32 L 402.69 587.27 C 403.39 589.78 402.93 592.45 403.03 595.03 C 402.89 602.04 403.97 608.99 404.05 615.99 C 404.42 624.37 406.21 632.63 406.17 641.04 C 407.50 653.62 407.54 666.49 404.72 678.88 C 403.27 684.80 401.39 690.75 398.01 695.88 C 402.18 686.65 405.15 676.82 405.76 666.66 C 406.15 660.58 406.05 654.48 405.81 648.40 C 405.24 634.39 403.22 620.48 402.70 606.47 C 402.32 599.75 402.05 593.04 402.34 586.32 Z" />
</g>
<g id="#783921d2">
<path fill="#783921" opacity="0.82" d=" M 653.91 595.54 C 655.65 599.88 656.52 604.57 656.97 609.23 C 655.44 604.79 654.46 600.19 653.91 595.54 Z" />
</g>
<g id="#e47d56fb">
<path fill="#e47d56" opacity="1.00" d=" M 460.50 601.89 C 461.34 609.58 461.26 617.40 460.42 625.10 C 460.15 617.37 460.10 609.62 460.50 601.89 Z" />
</g>
<g id="#612d19c0">
<path fill="#612d19" opacity="0.75" d=" M 657.10 609.72 C 659.48 615.84 659.35 622.53 659.93 628.98 C 659.25 644.68 656.75 660.28 656.90 676.03 C 655.48 698.75 659.60 721.31 658.94 744.00 C 657.90 750.18 658.07 756.73 655.65 762.57 C 656.20 757.27 657.23 752.02 657.69 746.71 C 657.71 746.41 657.75 745.80 657.77 745.49 C 658.26 739.82 658.06 734.13 657.89 728.46 C 657.75 721.89 656.98 715.36 656.74 708.80 C 655.31 688.93 655.58 668.89 657.65 649.07 C 657.70 648.22 657.75 647.37 657.79 646.53 C 658.00 643.17 658.28 639.82 658.57 636.48 C 659.89 627.53 658.12 618.59 657.10 609.72 Z" />
</g>
<g id="#75371fcd">
<path fill="#75371f" opacity="0.80" d=" M 608.07 610.80 C 609.42 614.56 610.60 618.43 610.80 622.45 C 609.49 618.67 608.42 614.80 608.07 610.80 Z" />
</g>
<g id="#743820d1">
<path fill="#743820" opacity="0.82" d=" M 635.09 613.91 C 638.19 613.42 640.11 616.43 642.05 618.32 C 640.01 617.18 638.03 615.94 636.06 614.70 C 635.89 615.33 635.54 616.57 635.37 617.19 C 635.20 616.10 635.11 615.00 635.09 613.91 Z" />
</g>
<g id="#e17e58fa">
<path fill="#e17e58" opacity="0.98" d=" M 373.90 618.67 C 377.99 617.62 382.61 617.25 386.24 619.80 C 382.16 619.12 378.02 618.95 373.90 618.67 Z" />
</g>
<g id="#8a4327f3">
<path fill="#8a4327" opacity="0.95" d=" M 636.40 617.73 C 637.70 618.25 639.00 619.20 639.09 620.74 C 637.64 621.51 635.61 619.08 636.40 617.73 Z" />
</g>
<g id="#783920dd">
<path fill="#783920" opacity="0.87" d=" M 642.74 618.83 C 645.08 620.07 647.40 621.35 649.86 622.35 C 649.86 621.66 649.84 620.27 649.84 619.58 C 650.18 620.79 650.53 622.01 650.89 623.24 C 647.72 622.74 644.81 621.31 642.74 618.83 Z" />
</g>
<g id="#66311dba">
<path fill="#66311d" opacity="0.73" d=" M 351.64 636.75 C 352.62 631.24 354.62 625.53 358.94 621.75 C 355.77 626.27 353.28 631.34 352.16 636.78 C 350.68 643.62 351.09 650.65 350.40 657.58 C 349.61 672.88 348.09 688.14 347.17 703.44 C 346.96 707.42 346.73 711.40 346.45 715.39 C 346.37 716.05 346.29 716.73 346.23 717.41 C 345.93 719.86 345.61 722.31 345.43 724.78 C 344.69 730.97 345.18 737.20 345.14 743.42 C 343.18 733.67 344.60 723.57 345.66 713.79 C 346.67 693.47 349.18 673.27 349.96 652.93 C 349.89 647.49 350.72 642.09 351.64 636.75 Z" />
</g>
<g id="#572715b6">
<path fill="#572715" opacity="0.71" d=" M 365.70 627.12 C 366.94 624.75 368.76 622.64 371.36 621.75 C 369.57 623.64 367.69 625.44 365.70 627.12 Z" />
</g>
<g id="#7a3c23cc">
<path fill="#7a3c23" opacity="0.80" d=" M 640.18 621.87 C 641.96 621.95 643.19 623.33 644.00 624.80 C 642.46 625.39 639.69 623.57 640.18 621.87 Z" />
</g>
<g id="#652c16c9">
<path fill="#652c16" opacity="0.79" d=" M 610.83 622.54 C 612.54 626.61 613.68 630.98 613.92 635.40 C 612.45 631.23 611.39 626.93 610.83 622.54 Z" />
</g>
<g id="#71361ecc">
<path fill="#71361e" opacity="0.80" d=" M 566.15 637.05 C 565.78 632.44 564.11 627.76 565.38 623.19 C 566.00 632.82 568.33 642.32 568.03 652.01 C 567.95 661.52 565.00 670.65 562.93 679.84 C 562.54 682.24 562.29 684.66 562.06 687.09 L 564.42 686.64 C 563.84 687.40 563.27 688.16 562.70 688.92 C 562.03 687.73 561.37 686.54 560.74 685.35 C 562.88 676.58 565.21 667.83 566.74 658.92 C 567.25 651.64 567.45 644.26 566.15 637.05 Z" />
</g>
<g id="#cd6f4afa">
<path fill="#cd6f4a" opacity="0.98" d=" M 565.38 623.19 C 567.40 623.80 568.51 625.58 569.12 627.47 C 571.02 634.18 573.11 640.95 573.05 648.00 C 573.57 659.12 570.63 670.06 566.59 680.32 C 566.28 679.91 565.68 679.08 565.38 678.67 C 565.20 679.56 564.85 681.35 564.68 682.24 C 564.09 681.43 563.51 680.63 562.93 679.84 C 565.00 670.65 567.95 661.52 568.03 652.01 C 568.33 642.32 566.00 632.82 565.38 623.19 Z" />
</g>
<g id="#622e19be">
<path fill="#622e19" opacity="0.75" d=" M 392.73 625.94 C 394.18 627.32 395.36 629.00 395.85 630.98 C 397.42 636.67 397.78 642.61 398.61 648.44 C 398.92 656.40 399.15 664.42 398.27 672.36 C 396.76 678.31 396.14 684.49 393.96 690.27 C 394.52 684.79 396.24 679.52 396.87 674.05 C 398.18 665.74 398.14 657.29 397.70 648.92 C 396.67 641.17 396.95 632.84 392.73 625.94 Z" />
</g>
<g id="#70351dd5">
<path fill="#70351d" opacity="0.84" d=" M 459.70 642.35 C 462.08 636.87 464.05 631.24 466.00 625.59 C 465.31 631.50 463.39 637.64 459.70 642.35 Z" />
</g>
<g id="#622d19ba">
<path fill="#622d19" opacity="0.73" d=" M 491.30 625.61 C 491.94 626.31 492.54 627.05 493.10 627.84 C 493.55 637.26 491.18 646.62 492.48 656.03 C 493.28 671.42 496.77 686.61 496.41 702.08 C 496.11 704.92 496.44 708.04 494.85 710.58 C 496.24 699.19 495.26 687.73 493.74 676.41 C 493.46 673.73 493.08 671.06 492.53 668.43 C 492.23 665.45 492.02 662.47 491.83 659.49 C 491.80 658.24 491.75 657.01 491.68 655.78 C 491.28 650.66 491.28 645.52 491.57 640.41 C 491.71 638.63 491.90 636.85 492.06 635.09 C 492.11 632.81 492.62 630.40 491.81 628.22 C 491.52 628.09 490.94 627.82 490.65 627.69 C 487.72 632.22 487.34 637.74 486.53 642.93 C 484.61 657.25 487.06 671.62 489.17 685.77 C 489.70 691.60 490.73 697.37 491.37 703.19 C 491.64 705.84 491.72 708.52 491.81 711.19 C 492.45 711.59 493.74 712.38 494.38 712.77 C 493.03 713.14 491.00 712.86 491.06 711.06 C 490.26 689.57 483.89 668.50 485.09 646.90 C 486.09 639.59 486.55 631.63 491.30 625.61 Z" />
</g>
<g id="#e17c54fb">
<path fill="#e17c54" opacity="1.00" d=" M 490.65 627.69 C 490.94 627.82 491.52 628.09 491.81 628.22 C 492.62 630.40 492.11 632.81 492.06 635.09 C 491.27 634.34 490.48 633.61 489.71 632.88 C 488.44 640.97 486.52 649.14 487.47 657.37 C 488.15 663.88 488.06 670.47 489.41 676.91 C 490.07 679.84 489.84 682.85 489.17 685.77 C 487.06 671.62 484.61 657.25 486.53 642.93 C 487.34 637.74 487.72 632.22 490.65 627.69 Z" />
</g>
<g id="#6c321bd3">
<path fill="#6c321b" opacity="0.83" d=" M 569.12 627.47 C 573.56 635.45 574.29 644.99 574.02 653.96 C 573.40 664.00 569.98 673.57 566.54 682.93 C 566.08 683.84 565.54 684.70 564.90 685.51 C 565.47 683.78 566.02 682.04 566.59 680.32 C 570.63 670.06 573.57 659.12 573.05 648.00 C 573.11 640.95 571.02 634.18 569.12 627.47 Z" />
</g>
<g id="#6b331dbd">
<path fill="#6b331d" opacity="0.74" d=" M 647.72 627.75 C 648.33 628.08 649.56 628.73 650.17 629.06 C 650.56 642.25 647.96 655.30 648.09 668.48 C 647.51 680.81 647.86 693.15 648.11 705.49 C 647.93 712.00 648.90 718.46 649.05 724.97 C 649.55 735.40 649.06 745.92 646.86 756.15 C 645.06 763.52 642.71 770.75 640.87 778.12 C 639.84 782.28 638.73 786.45 636.95 790.36 C 639.65 778.48 643.49 766.88 646.36 755.04 C 648.47 743.87 649.06 732.39 648.11 721.05 C 646.34 695.42 646.09 669.59 648.94 644.04 C 649.14 639.40 649.47 634.76 649.59 630.13 C 649.12 629.53 648.19 628.35 647.72 627.75 Z" />
</g>
<g id="#602a16c3">
<path fill="#602a16" opacity="0.76" d=" M 361.49 633.71 C 361.97 633.02 362.45 632.33 362.93 631.65 C 358.91 644.33 359.38 657.82 358.79 670.96 C 357.40 687.31 356.19 703.65 355.02 720.00 C 354.94 727.33 355.03 734.66 355.01 742.00 C 354.89 746.56 356.31 751.01 355.93 755.58 C 355.29 753.29 354.78 750.96 354.44 748.62 C 353.76 736.97 353.66 725.24 354.60 713.60 C 355.67 698.59 357.43 683.61 357.92 668.57 C 358.39 656.92 358.13 644.99 361.49 633.71 Z" />
</g>
<g id="#cd6f4cfb">
<path fill="#cd6f4c" opacity="1.00" d=" M 489.71 632.88 C 490.48 633.61 491.27 634.34 492.06 635.09 C 491.90 636.85 491.71 638.63 491.57 640.41 C 491.24 640.03 490.59 639.27 490.26 638.90 C 489.85 645.28 490.05 651.68 490.31 658.08 C 490.65 657.50 491.34 656.35 491.68 655.78 C 491.75 657.01 491.80 658.24 491.83 659.49 C 491.08 662.53 490.28 665.79 492.53 668.43 C 493.08 671.06 493.46 673.73 493.74 676.41 C 492.75 679.17 492.44 682.12 492.97 685.02 C 493.83 690.75 493.80 696.54 493.76 702.32 C 492.96 702.60 492.16 702.89 491.37 703.19 C 490.73 697.37 489.70 691.60 489.17 685.77 C 489.84 682.85 490.07 679.84 489.41 676.91 C 488.06 670.47 488.15 663.88 487.47 657.37 C 486.52 649.14 488.44 640.97 489.71 632.88 Z" />
</g>
<g id="#e57f58fb">
<path fill="#e57f58" opacity="1.00" d=" M 357.41 648.26 C 358.04 643.26 357.71 637.60 361.49 633.71 C 358.13 644.99 358.39 656.92 357.92 668.57 C 355.86 661.97 356.98 655.00 357.41 648.26 Z" />
</g>
<g id="#e98158fa">
<path fill="#e98158" opacity="0.98" d=" M 657.23 634.91 C 657.57 635.30 658.24 636.08 658.57 636.48 C 658.28 639.82 658.00 643.17 657.79 646.53 C 657.07 642.69 656.80 638.79 657.23 634.91 Z" />
</g>
<g id="#602913cb">
<path fill="#602913" opacity="0.80" d=" M 613.96 635.59 C 615.40 638.32 616.10 641.40 615.90 644.49 C 615.05 641.57 614.38 638.60 613.96 635.59 Z" />
</g>
<g id="#e78058f9">
<path fill="#e78058" opacity="0.98" d=" M 490.26 638.90 C 490.59 639.27 491.24 640.03 491.57 640.41 C 491.28 645.52 491.28 650.66 491.68 655.78 C 491.34 656.35 490.65 657.50 490.31 658.08 C 490.05 651.68 489.85 645.28 490.26 638.90 Z" />
</g>
<g id="#622c18c6">
<path fill="#622c18" opacity="0.78" d=" M 615.94 644.65 C 617.79 648.61 618.63 652.97 618.99 657.31 C 617.49 653.22 616.56 648.95 615.94 644.65 Z" />
</g>
<g id="#e68055fb">
<path fill="#e68055" opacity="1.00" d=" M 398.61 648.44 C 398.89 648.06 399.46 647.28 399.74 646.90 C 400.18 652.89 400.07 658.90 400.14 664.91 C 400.04 667.47 400.48 670.49 398.27 672.36 C 399.15 664.42 398.92 656.40 398.61 648.44 Z" />
</g>
<g id="#e17952fc">
<path fill="#e17952" opacity="1.00" d=" M 656.15 646.98 C 656.52 647.50 657.27 648.55 657.65 649.07 C 655.58 668.89 655.31 688.93 656.74 708.80 C 656.35 709.35 655.56 710.46 655.17 711.01 C 655.09 701.65 654.16 692.32 654.10 682.96 C 654.93 670.97 654.85 658.94 656.15 646.98 Z" />
</g>
<g id="#ed8459fc">
<path fill="#ed8459" opacity="1.00" d=" M 405.76 666.66 C 404.18 660.68 404.57 654.40 405.81 648.40 C 406.05 654.48 406.15 660.58 405.76 666.66 Z" />
</g>
<g id="#72331cd3">
<path fill="#72331c" opacity="0.83" d=" M 619.06 657.55 C 621.49 663.31 621.60 669.73 623.36 675.70 C 625.58 689.93 629.41 704.00 630.05 718.43 C 627.91 707.32 626.54 696.07 624.28 684.98 C 622.79 675.78 620.26 666.79 619.06 657.55 Z" />
</g>
<g id="#eb8158f9">
<path fill="#eb8158" opacity="0.98" d=" M 492.53 668.43 C 490.28 665.79 491.08 662.53 491.83 659.49 C 492.02 662.47 492.23 665.45 492.53 668.43 Z" />
</g>
<g id="#eb8159fc">
<path fill="#eb8159" opacity="1.00" d=" M 648.09 668.48 C 649.09 672.90 649.16 677.45 649.00 681.97 C 648.72 689.81 649.76 697.74 648.11 705.49 C 647.86 693.15 647.51 680.81 648.09 668.48 Z" />
</g>
<g id="#793921cf">
<path fill="#793921" opacity="0.81" d=" M 425.06 675.85 C 425.04 673.60 426.48 671.81 427.70 670.07 C 431.20 672.55 430.37 677.23 430.66 680.96 C 430.62 687.43 431.26 693.87 432.00 700.30 C 428.57 691.21 430.88 681.34 428.86 672.03 C 426.16 670.90 426.19 674.29 425.90 676.05 C 425.53 684.16 424.93 692.37 426.33 700.42 C 426.99 704.73 428.39 708.89 429.24 713.17 C 423.62 701.66 424.45 688.31 425.06 675.85 Z" />
</g>
<g id="#cf704cfa">
<path fill="#cf704c" opacity="0.98" d=" M 425.90 676.05 C 426.19 674.29 426.16 670.90 428.86 672.03 C 430.88 681.34 428.57 691.21 432.00 700.30 C 433.67 707.72 435.73 715.10 438.88 722.04 C 440.24 724.96 442.58 727.53 442.91 730.86 C 442.44 730.96 441.50 731.17 441.03 731.27 L 439.57 730.54 C 439.55 730.53 439.51 730.50 439.49 730.49 C 438.93 730.06 437.82 729.20 437.27 728.76 L 437.27 727.70 C 437.45 726.42 436.60 725.13 435.35 724.85 L 434.51 724.54 C 434.42 724.29 434.24 723.81 434.15 723.56 C 433.09 720.43 431.67 717.41 429.77 714.70 L 429.48 714.25 C 429.42 713.98 429.30 713.44 429.24 713.17 C 428.39 708.89 426.99 704.73 426.33 700.42 C 424.93 692.37 425.53 684.16 425.90 676.05 Z" />
</g>
<g id="#e68055fa">
<path fill="#e68055" opacity="0.98" d=" M 565.38 678.67 C 565.68 679.08 566.28 679.91 566.59 680.32 C 566.02 682.04 565.47 683.78 564.90 685.51 C 564.78 685.79 564.54 686.36 564.42 686.64 L 562.06 687.09 C 562.29 684.66 562.54 682.24 562.93 679.84 C 563.51 680.63 564.09 681.43 564.68 682.24 C 564.85 681.35 565.20 679.56 565.38 678.67 Z" />
</g>
<g id="#ea845cfc">
<path fill="#ea845c" opacity="1.00" d=" M 347.17 703.44 C 348.21 707.40 348.72 711.72 346.45 715.39 C 346.73 711.40 346.96 707.42 347.17 703.44 Z" />
</g>
<g id="#d2724dfb">
<path fill="#d2724d" opacity="1.00" d=" M 377.23 710.76 C 377.24 708.92 378.83 707.80 380.14 706.81 C 379.83 712.08 379.79 717.45 381.29 722.57 C 381.32 722.79 381.37 723.22 381.40 723.44 C 381.08 729.83 383.34 735.88 385.18 741.90 C 385.86 744.14 386.89 746.28 388.20 748.23 C 388.93 749.39 389.56 750.64 390.13 751.91 C 388.01 752.09 385.61 751.12 385.07 748.89 C 384.77 746.93 383.96 745.02 382.10 744.10 C 378.88 740.86 377.86 735.81 376.76 731.49 C 378.59 724.71 377.83 717.65 377.23 710.76 Z" />
</g>
<g id="#994a2dfa">
<path fill="#994a2d" opacity="0.98" d=" M 380.14 706.81 C 381.78 711.86 381.19 717.33 381.29 722.57 C 379.79 717.45 379.83 712.08 380.14 706.81 Z" />
</g>
<g id="#e9815afc">
<path fill="#e9815a" opacity="1.00" d=" M 352.96 725.00 C 352.99 721.15 352.47 717.03 354.60 713.60 C 353.66 725.24 353.76 736.97 354.44 748.62 C 354.17 748.97 353.62 749.67 353.35 750.01 C 352.90 741.68 353.03 733.33 352.96 725.00 Z" />
</g>
<g id="#743821de">
<path fill="#743821" opacity="0.87" d=" M 429.77 714.70 C 431.67 717.41 433.09 720.43 434.15 723.56 C 431.73 721.17 430.76 717.84 429.77 714.70 Z" />
</g>
<g id="#502313a9">
<path fill="#502313" opacity="0.66" d=" M 621.12 715.54 C 622.66 723.05 622.41 730.77 622.22 738.40 C 621.78 743.75 621.12 749.09 620.12 754.37 C 619.47 756.53 618.93 758.71 618.44 760.92 C 619.02 761.37 620.18 762.28 620.77 762.73 L 621.33 763.18 C 619.99 763.21 618.83 762.81 617.85 761.99 C 617.56 759.53 618.49 757.19 619.00 754.84 C 620.72 747.34 621.27 739.64 621.70 731.97 C 622.02 726.47 620.66 721.03 621.12 715.54 Z" />
</g>
<g id="#e78159fc">
<path fill="#e78159" opacity="1.00" d=" M 346.23 717.41 C 347.15 721.32 347.22 725.35 346.39 729.29 C 346.04 727.78 345.72 726.28 345.43 724.78 C 345.61 722.31 345.93 719.86 346.23 717.41 Z" />
</g>
<g id="#642c17cf">
<path fill="#642c17" opacity="0.81" d=" M 630.11 718.81 C 631.38 724.19 631.22 729.80 630.42 735.23 C 629.47 741.81 629.07 748.81 625.20 754.49 C 629.51 743.10 630.42 730.88 630.11 718.81 Z" />
</g>
<g id="#e78157f9">
<path fill="#e78157" opacity="0.98" d=" M 623.31 738.21 C 622.93 732.43 622.56 726.57 623.48 720.82 C 624.04 726.57 624.77 732.54 623.31 738.21 Z" />
</g>
<g id="#783922d6">
<path fill="#783922" opacity="0.84" d=" M 381.40 723.44 C 382.96 731.89 385.40 740.11 388.20 748.23 C 386.89 746.28 385.86 744.14 385.18 741.90 C 383.34 735.88 381.08 729.83 381.40 723.44 Z" />
</g>
<g id="#864127ea">
<path fill="#864127" opacity="0.92" d=" M 435.35 724.85 C 436.60 725.13 437.45 726.42 437.27 727.70 C 435.88 728.27 434.59 725.93 435.35 724.85 Z" />
</g>
<g id="#ec8157fb">
<path fill="#ec8157" opacity="1.00" d=" M 657.77 745.49 C 656.62 739.86 656.39 734.05 657.89 728.46 C 658.06 734.13 658.26 739.82 657.77 745.49 Z" />
</g>
<g id="#461f10cf">
<path fill="#461f10" opacity="0.81" d=" M 439.49 730.49 C 439.51 730.50 439.55 730.53 439.57 730.54 C 439.55 730.53 439.51 730.50 439.49 730.49 Z" />
</g>
<g id="#e88158fb">
<path fill="#e88158" opacity="1.00" d=" M 622.22 738.40 C 623.64 743.20 623.01 748.34 621.43 753.03 L 620.12 754.37 C 621.12 749.09 621.78 743.75 622.22 738.40 Z" />
</g>
<g id="#814027de">
<path fill="#814027" opacity="0.87" d=" M 382.10 744.10 C 383.96 745.02 384.77 746.93 385.07 748.89 C 383.30 748.90 381.53 745.75 382.10 744.10 Z" />
</g>
<g id="#e27b53fc">
<path fill="#e27b53" opacity="1.00" d=" M 654.28 759.33 C 654.97 755.04 655.05 750.38 657.69 746.71 C 657.23 752.02 656.20 757.27 655.65 762.57 C 655.53 763.18 655.28 764.40 655.16 765.01 C 654.42 763.19 653.88 761.28 654.28 759.33 Z" />
</g>
<g id="#67301bca">
<path fill="#67301b" opacity="0.79" d=" M 346.14 753.39 C 347.13 756.99 347.69 760.69 347.95 764.42 C 346.65 760.90 346.20 757.12 346.14 753.39 Z" />
</g>
<g id="#6d331ecc">
<path fill="#6d331e" opacity="0.80" d=" M 356.98 761.61 C 358.29 765.45 359.61 769.35 359.89 773.44 C 358.47 769.62 357.21 765.70 356.98 761.61 Z" />
</g>
<g id="#793a23d4">
<path fill="#793a23" opacity="0.83" d=" M 359.93 773.59 C 361.58 778.09 362.99 782.71 363.93 787.42 C 361.70 783.12 360.64 778.35 359.93 773.59 Z" />
</g>
<g id="#7c381fe1">
<path fill="#7c381f" opacity="0.88" d=" M 644.94 799.45 C 645.48 796.04 646.47 792.73 647.97 789.62 C 647.66 793.06 646.58 796.41 644.94 799.45 Z" />
</g>
<g id="#6e341dc9">
<path fill="#6e341d" opacity="0.79" d=" M 366.83 795.85 C 369.02 799.64 369.82 804.02 371.36 808.09 C 372.86 812.90 375.31 817.42 376.18 822.43 C 372.43 813.82 369.20 804.93 366.83 795.85 Z" />
</g>
<g id="#73351dd6">
<path fill="#73351d" opacity="0.84" d=" M 638.86 817.73 C 640.90 811.67 642.61 805.50 644.92 799.54 C 644.59 804.81 642.16 809.65 640.79 814.70 C 638.41 821.15 636.67 827.86 633.83 834.14 C 634.76 828.46 637.07 823.17 638.86 817.73 Z" />
</g>
<g id="#dd7951fb">
<path fill="#dd7951" opacity="1.00" d=" M 629.25 815.07 C 630.24 818.93 628.41 822.60 627.24 826.19 C 625.72 830.68 624.41 835.29 622.05 839.45 C 622.90 835.57 623.87 831.71 624.73 827.84 L 624.84 827.49 C 626.21 824.33 627.34 821.07 628.14 817.72 C 628.42 817.06 628.97 815.73 629.25 815.07 Z" />
</g>
<g id="#612d19b1">
<path fill="#612d19" opacity="0.69" d=" M 624.84 827.49 C 625.25 824.05 626.19 820.62 628.14 817.72 C 627.34 821.07 626.21 824.33 624.84 827.49 Z" />
</g>
<g id="#7a3b22db">
<path fill="#7a3b22" opacity="0.86" d=" M 376.24 822.59 C 378.48 826.98 380.06 831.69 381.41 836.43 C 378.83 832.18 377.39 827.39 376.24 822.59 Z" />
</g>
<g id="#76371fdb">
<path fill="#76371f" opacity="0.86" d=" M 381.73 838.40 C 383.57 838.20 384.48 841.72 383.62 843.12 C 382.50 841.78 381.57 840.19 381.73 838.40 Z" />
</g>
<g id="#7e3c24d2">
<path fill="#7e3c24" opacity="0.82" d=" M 615.64 852.51 C 616.94 848.45 618.21 844.34 620.18 840.54 C 619.32 844.75 617.90 848.84 615.64 852.51 Z" />
</g>
<g id="#833f26d4">
<path fill="#833f26" opacity="0.83" d=" M 607.62 871.47 C 608.93 866.95 610.85 862.59 613.17 858.50 C 612.11 863.13 609.97 867.38 607.62 871.47 Z" />
</g>
<g id="#81422be1">
<path fill="#81422b" opacity="0.88" d=" M 381.04 862.63 C 382.43 865.03 383.37 867.66 383.93 870.39 C 382.48 868.02 381.45 865.38 381.04 862.63 Z" />
</g>
<g id="#75351ddf">
<path fill="#75351d" opacity="0.87" d=" M 397.88 879.99 C 399.70 880.07 400.57 883.35 399.83 884.86 C 398.31 883.70 398.06 881.74 397.88 879.99 Z" />
</g>
<g id="#7c3c25d5">
<path fill="#7c3c25" opacity="0.84" d=" M 391.70 890.64 C 394.47 896.01 396.75 901.68 397.97 907.62 C 395.48 902.13 393.39 896.42 391.70 890.64 Z" />
</g>
<g id="#6f321ccc">
<path fill="#6f321c" opacity="0.80" d=" M 583.90 934.43 C 583.93 931.34 584.63 928.32 585.98 925.55 C 585.58 928.57 584.86 931.53 583.90 934.43 Z" />
</g>
<g id="#6a331fc7">
<path fill="#6a331f" opacity="0.78" d=" M 416.03 930.64 C 417.18 933.03 417.93 935.62 417.99 938.30 C 417.11 935.80 416.39 933.26 416.03 930.64 Z" />
</g>
<g id="#77371ed7">
<path fill="#77371e" opacity="0.84" d=" M 593.87 939.33 C 594.19 936.32 594.74 933.33 595.94 930.55 C 595.63 933.53 595.29 936.62 593.87 939.33 Z" />
</g>
<g id="#713821c9">
<path fill="#713821" opacity="0.79" d=" M 431.09 939.08 C 431.50 938.65 432.31 937.79 432.72 937.35 C 436.34 942.92 436.43 949.88 435.41 956.23 C 434.90 960.35 433.88 964.40 432.22 968.22 C 433.81 960.38 436.17 952.31 434.43 944.30 C 434.11 942.53 433.77 940.69 432.63 939.27 C 432.39 939.75 431.90 940.71 431.65 941.19 C 430.26 950.53 428.79 960.05 424.10 968.43 C 425.39 963.50 427.85 958.93 428.77 953.91 C 429.61 948.97 430.28 944.01 431.09 939.08 Z" />
</g>
<g id="#6a341fb6">
<path fill="#6a341f" opacity="0.71" d=" M 408.01 938.76 C 411.28 947.37 412.02 956.62 413.35 965.66 C 413.70 971.21 413.54 976.78 413.49 982.34 C 412.02 987.78 410.45 993.21 408.05 998.32 C 408.94 992.72 412.04 987.69 412.40 981.98 C 414.01 967.41 410.73 952.97 408.01 938.76 Z" />
</g>
<g id="#6d341ecd">
<path fill="#6d341e" opacity="0.80" d=" M 418.10 938.68 C 419.43 941.37 419.96 944.35 420.03 947.35 C 419.10 944.53 418.53 941.61 418.10 938.68 Z" />
</g>
<g id="#e38259f6">
<path fill="#e38259" opacity="0.96" d=" M 431.65 941.19 C 431.90 940.71 432.39 939.75 432.63 939.27 C 433.77 940.69 434.11 942.53 434.43 944.30 C 433.47 943.28 432.34 942.40 431.65 941.19 Z" />
</g>
<g id="#6a321cc4">
<path fill="#6a321c" opacity="0.77" d=" M 590.63 958.49 C 591.56 952.12 592.15 945.69 593.84 939.47 C 594.18 943.67 592.67 947.70 592.29 951.86 C 591.04 964.62 589.41 977.34 587.99 990.09 C 586.59 1003.08 582.79 1015.61 579.15 1028.10 C 576.01 1038.55 573.60 1049.22 570.11 1059.55 C 570.83 1052.76 573.33 1046.38 575.02 1039.82 C 578.73 1026.72 582.72 1013.69 585.63 1000.39 C 587.74 989.26 588.57 977.93 589.79 966.68 C 590.04 963.94 590.36 961.21 590.63 958.49 Z" />
</g>
<g id="#ea8359fa">
<path fill="#ea8359" opacity="0.98" d=" M 589.17 956.83 C 589.53 957.24 590.26 958.07 590.63 958.49 C 590.36 961.21 590.04 963.94 589.79 966.68 C 589.17 963.43 588.89 960.12 589.17 956.83 Z" />
</g>
<g id="#e3815bf7">
<path fill="#e3815b" opacity="0.97" d=" M 413.35 965.66 C 414.15 966.96 414.93 968.35 414.91 969.95 C 415.09 974.09 415.56 978.54 413.49 982.34 C 413.54 976.78 413.70 971.21 413.35 965.66 Z" />
</g>
<g id="#823f25d6">
<path fill="#823f25" opacity="0.84" d=" M 427.13 979.36 C 428.24 975.57 429.84 971.96 432.01 968.66 C 430.87 972.41 429.20 976.02 427.13 979.36 Z" />
</g>
<g id="#7f3f25d3">
<path fill="#7f3f25" opacity="0.83" d=" M 419.93 994.23 C 420.80 991.09 422.08 988.07 424.00 985.43 C 423.06 988.53 421.69 991.50 419.93 994.23 Z" />
</g>
<g id="#723922ce">
<path fill="#723922" opacity="0.81" d=" M 416.02 1006.41 C 416.69 1002.27 417.98 998.26 419.83 994.50 C 419.10 998.61 417.79 1002.62 416.02 1006.41 Z" />
</g>
<g id="#6b341fc3">
<path fill="#6b341f" opacity="0.76" d=" M 403.38 1026.94 C 403.82 1017.40 403.60 1007.44 407.93 998.65 C 407.35 1001.16 406.89 1003.70 406.33 1006.22 C 402.93 1019.73 404.94 1033.74 405.15 1047.47 C 405.09 1052.15 405.05 1056.83 405.15 1061.52 C 405.07 1065.90 404.84 1070.28 404.37 1074.65 C 403.34 1080.50 402.71 1086.41 402.16 1092.34 C 398.93 1111.55 394.52 1130.52 390.63 1149.61 L 390.08 1148.76 C 394.08 1127.13 399.83 1105.78 402.30 1083.87 C 403.92 1073.64 404.42 1063.29 404.65 1052.96 C 404.02 1044.29 404.02 1035.60 403.38 1026.94 Z" />
</g>
<g id="#e6825bfa">
<path fill="#e6825b" opacity="0.98" d=" M 406.33 1006.22 C 406.93 1011.49 405.63 1016.72 405.84 1021.99 C 405.57 1030.48 406.78 1039.06 405.15 1047.47 C 404.94 1033.74 402.93 1019.73 406.33 1006.22 Z" />
</g>
<g id="#632c17c5">
<path fill="#632c17" opacity="0.77" d=" M 413.84 1027.53 C 414.07 1020.58 413.66 1013.50 415.93 1006.81 C 416.25 1009.92 415.23 1012.92 415.03 1016.01 C 414.19 1034.09 417.47 1052.16 415.39 1070.22 C 414.94 1078.27 413.51 1086.23 412.29 1094.20 C 411.60 1097.91 411.34 1101.75 410.03 1105.32 C 410.69 1096.05 413.21 1087.03 413.80 1077.76 C 415.14 1066.37 415.39 1054.89 414.82 1043.44 C 414.79 1042.16 414.73 1040.90 414.66 1039.64 C 414.45 1035.59 413.99 1031.57 413.84 1027.53 Z" />
</g>
<g id="#e78057fa">
<path fill="#e78057" opacity="0.98" d=" M 413.63 1042.13 C 412.91 1037.28 412.58 1032.31 413.84 1027.53 C 413.99 1031.57 414.45 1035.59 414.66 1039.64 C 414.40 1040.26 413.89 1041.51 413.63 1042.13 Z" />
</g>
<g id="#67311dc5">
<path fill="#67311d" opacity="0.77" d=" M 553.41 1080.41 C 556.24 1067.41 558.56 1054.22 563.07 1041.67 C 559.75 1056.79 555.24 1071.71 553.26 1087.11 C 552.04 1093.56 551.19 1100.08 550.45 1106.61 C 549.88 1111.17 549.29 1115.75 549.17 1120.36 C 548.95 1123.18 548.67 1126.00 548.40 1128.82 C 548.15 1131.39 548.02 1133.98 548.07 1136.58 C 547.98 1143.88 547.92 1151.18 548.16 1158.48 C 547.97 1161.15 547.73 1163.83 547.56 1166.52 C 546.46 1159.74 547.20 1152.85 546.99 1146.03 C 547.41 1124.03 549.48 1102.06 553.41 1080.41 Z" />
</g>
<g id="#e57b53fc">
<path fill="#e57b53" opacity="1.00" d=" M 413.96 1059.07 C 413.86 1053.84 413.58 1048.56 414.82 1043.44 C 415.39 1054.89 415.14 1066.37 413.80 1077.76 C 411.68 1071.62 414.17 1065.32 413.96 1059.07 Z" />
</g>
<g id="#e7825cfb">
<path fill="#e7825c" opacity="1.00" d=" M 405.15 1061.52 C 406.17 1066.26 406.23 1071.13 405.69 1075.95 C 405.36 1075.62 404.70 1074.97 404.37 1074.65 C 404.84 1070.28 405.07 1065.90 405.15 1061.52 Z" />
</g>
<g id="#642f1bc1">
<path fill="#642f1b" opacity="0.76" d=" M 560.66 1102.44 C 562.57 1093.81 562.92 1084.77 566.20 1076.50 C 564.63 1086.72 562.25 1096.84 560.78 1107.11 C 557.31 1128.30 555.44 1149.70 552.82 1171.00 L 551.68 1170.89 C 552.99 1166.81 553.46 1162.53 553.74 1158.28 C 554.33 1148.45 555.71 1138.70 556.70 1128.92 C 557.90 1120.07 559.45 1111.28 560.66 1102.44 Z" />
</g>
<g id="#e47e59fc">
<path fill="#e47e59" opacity="1.00" d=" M 553.26 1087.11 C 554.53 1094.11 552.01 1101.05 551.67 1108.04 C 551.36 1107.68 550.75 1106.97 550.45 1106.61 C 551.19 1100.08 552.04 1093.56 553.26 1087.11 Z" />
</g>
<g id="#df7c55fb">
<path fill="#df7c55" opacity="1.00" d=" M 402.16 1092.34 C 404.40 1098.24 401.00 1104.11 400.31 1109.98 C 399.40 1117.89 396.54 1125.38 395.48 1133.26 C 394.56 1139.25 392.74 1145.05 391.60 1151.00 C 391.36 1150.65 390.87 1149.95 390.63 1149.61 C 394.52 1130.52 398.93 1111.55 402.16 1092.34 Z" />
</g>
<g id="#e17b54fb">
<path fill="#e17b54" opacity="1.00" d=" M 559.36 1100.90 C 559.69 1101.28 560.34 1102.05 560.66 1102.44 C 559.45 1111.28 557.90 1120.07 556.70 1128.92 C 554.83 1126.48 556.05 1123.37 556.38 1120.67 C 557.71 1114.13 558.25 1107.47 559.36 1100.90 Z" />
</g>
<g id="#753720d9">
<path fill="#753720" opacity="0.85" d=" M 403.05 1131.86 C 405.69 1123.21 406.99 1114.22 409.93 1105.67 C 408.61 1117.08 404.69 1127.97 402.04 1139.11 C 400.54 1144.28 399.23 1149.53 397.18 1154.52 C 398.44 1146.80 401.33 1139.48 403.05 1131.86 Z" />
</g>
<g id="#e8825bfb">
<path fill="#e8825b" opacity="1.00" d=" M 549.17 1120.36 C 549.93 1123.84 550.09 1127.41 549.76 1130.96 C 549.42 1130.43 548.74 1129.35 548.40 1128.82 C 548.67 1126.00 548.95 1123.18 549.17 1120.36 Z" />
</g>
<g id="#e9825afd">
<path fill="#e9825a" opacity="1.00" d=" M 548.07 1136.58 C 549.54 1143.79 549.36 1151.25 548.16 1158.48 C 547.92 1151.18 547.98 1143.88 548.07 1136.58 Z" />
</g>
<g id="#6e3621cf">
<path fill="#6e3621" opacity="0.81" d=" M 386.15 1166.52 C 386.26 1163.48 386.85 1160.44 388.03 1157.64 C 387.80 1160.66 387.31 1163.69 386.15 1166.52 Z" />
</g>
<g id="#6f3923d1">
<path fill="#6f3923" opacity="0.82" d=" M 380.74 1188.77 C 381.81 1184.76 382.25 1180.58 383.93 1176.76 C 382.29 1189.52 377.62 1201.63 375.12 1214.22 C 374.94 1215.72 374.34 1217.38 375.17 1218.84 C 376.22 1219.25 377.25 1219.06 378.25 1218.28 C 377.56 1219.29 376.89 1220.31 376.22 1221.35 C 375.64 1220.97 374.50 1220.20 373.93 1219.82 C 373.70 1216.29 374.47 1212.85 375.44 1209.50 C 376.95 1202.52 379.00 1195.69 380.74 1188.77 Z" />
</g>
</svg>
